%TF.GenerationSoftware,KiCad,Pcbnew,(5.1.8)-1*%
%TF.CreationDate,2022-04-23T21:59:24-07:00*%
%TF.ProjectId,AttitudeMotorController,41747469-7475-4646-954d-6f746f72436f,rev?*%
%TF.SameCoordinates,Original*%
%TF.FileFunction,Soldermask,Bot*%
%TF.FilePolarity,Negative*%
%FSLAX46Y46*%
G04 Gerber Fmt 4.6, Leading zero omitted, Abs format (unit mm)*
G04 Created by KiCad (PCBNEW (5.1.8)-1) date 2022-04-23 21:59:24*
%MOMM*%
%LPD*%
G01*
G04 APERTURE LIST*
%ADD10C,17.800000*%
%ADD11R,1.270000X5.080000*%
%ADD12R,1.700000X1.700000*%
%ADD13O,1.700000X1.700000*%
%ADD14O,1.850000X1.700000*%
%ADD15R,0.700000X1.200000*%
%ADD16R,1.000000X1.200000*%
%ADD17R,1.000000X0.800000*%
%ADD18R,1.000000X2.800000*%
%ADD19R,1.300000X1.900000*%
%ADD20O,3.600000X2.000000*%
%ADD21R,2.500000X2.500000*%
%ADD22O,2.500000X2.500000*%
%ADD23R,2.700000X2.200000*%
%ADD24R,0.800000X1.900000*%
%ADD25R,1.900000X0.800000*%
%ADD26C,2.000000*%
%ADD27R,0.875000X3.100000*%
%ADD28R,0.950000X3.100000*%
%ADD29R,1.340000X2.625000*%
%ADD30R,1.600200X0.838200*%
%ADD31R,1.600200X2.997200*%
%ADD32R,0.350000X0.500000*%
%ADD33C,0.100000*%
G04 APERTURE END LIST*
D10*
%TO.C,BT1*%
X126758700Y-23990300D03*
D11*
X137743700Y-23990300D03*
X115773700Y-23990300D03*
%TD*%
%TO.C,C12*%
G36*
G01*
X76743200Y-34196202D02*
X76743200Y-31996198D01*
G75*
G02*
X76993198Y-31746200I249998J0D01*
G01*
X77818202Y-31746200D01*
G75*
G02*
X78068200Y-31996198I0J-249998D01*
G01*
X78068200Y-34196202D01*
G75*
G02*
X77818202Y-34446200I-249998J0D01*
G01*
X76993198Y-34446200D01*
G75*
G02*
X76743200Y-34196202I0J249998D01*
G01*
G37*
G36*
G01*
X79868200Y-34196202D02*
X79868200Y-31996198D01*
G75*
G02*
X80118198Y-31746200I249998J0D01*
G01*
X80943202Y-31746200D01*
G75*
G02*
X81193200Y-31996198I0J-249998D01*
G01*
X81193200Y-34196202D01*
G75*
G02*
X80943202Y-34446200I-249998J0D01*
G01*
X80118198Y-34446200D01*
G75*
G02*
X79868200Y-34196202I0J249998D01*
G01*
G37*
%TD*%
%TO.C,C13*%
G36*
G01*
X77651600Y-49651800D02*
X78126600Y-49651800D01*
G75*
G02*
X78364100Y-49889300I0J-237500D01*
G01*
X78364100Y-50489300D01*
G75*
G02*
X78126600Y-50726800I-237500J0D01*
G01*
X77651600Y-50726800D01*
G75*
G02*
X77414100Y-50489300I0J237500D01*
G01*
X77414100Y-49889300D01*
G75*
G02*
X77651600Y-49651800I237500J0D01*
G01*
G37*
G36*
G01*
X77651600Y-47926800D02*
X78126600Y-47926800D01*
G75*
G02*
X78364100Y-48164300I0J-237500D01*
G01*
X78364100Y-48764300D01*
G75*
G02*
X78126600Y-49001800I-237500J0D01*
G01*
X77651600Y-49001800D01*
G75*
G02*
X77414100Y-48764300I0J237500D01*
G01*
X77414100Y-48164300D01*
G75*
G02*
X77651600Y-47926800I237500J0D01*
G01*
G37*
%TD*%
%TO.C,C14*%
G36*
G01*
X79658200Y-47939500D02*
X80133200Y-47939500D01*
G75*
G02*
X80370700Y-48177000I0J-237500D01*
G01*
X80370700Y-48777000D01*
G75*
G02*
X80133200Y-49014500I-237500J0D01*
G01*
X79658200Y-49014500D01*
G75*
G02*
X79420700Y-48777000I0J237500D01*
G01*
X79420700Y-48177000D01*
G75*
G02*
X79658200Y-47939500I237500J0D01*
G01*
G37*
G36*
G01*
X79658200Y-49664500D02*
X80133200Y-49664500D01*
G75*
G02*
X80370700Y-49902000I0J-237500D01*
G01*
X80370700Y-50502000D01*
G75*
G02*
X80133200Y-50739500I-237500J0D01*
G01*
X79658200Y-50739500D01*
G75*
G02*
X79420700Y-50502000I0J237500D01*
G01*
X79420700Y-49902000D01*
G75*
G02*
X79658200Y-49664500I237500J0D01*
G01*
G37*
%TD*%
%TO.C,C25*%
G36*
G01*
X148332200Y-44328200D02*
X147857200Y-44328200D01*
G75*
G02*
X147619700Y-44090700I0J237500D01*
G01*
X147619700Y-43490700D01*
G75*
G02*
X147857200Y-43253200I237500J0D01*
G01*
X148332200Y-43253200D01*
G75*
G02*
X148569700Y-43490700I0J-237500D01*
G01*
X148569700Y-44090700D01*
G75*
G02*
X148332200Y-44328200I-237500J0D01*
G01*
G37*
G36*
G01*
X148332200Y-46053200D02*
X147857200Y-46053200D01*
G75*
G02*
X147619700Y-45815700I0J237500D01*
G01*
X147619700Y-45215700D01*
G75*
G02*
X147857200Y-44978200I237500J0D01*
G01*
X148332200Y-44978200D01*
G75*
G02*
X148569700Y-45215700I0J-237500D01*
G01*
X148569700Y-45815700D01*
G75*
G02*
X148332200Y-46053200I-237500J0D01*
G01*
G37*
%TD*%
%TO.C,C26*%
G36*
G01*
X143837200Y-45767000D02*
X143837200Y-45292000D01*
G75*
G02*
X144074700Y-45054500I237500J0D01*
G01*
X144674700Y-45054500D01*
G75*
G02*
X144912200Y-45292000I0J-237500D01*
G01*
X144912200Y-45767000D01*
G75*
G02*
X144674700Y-46004500I-237500J0D01*
G01*
X144074700Y-46004500D01*
G75*
G02*
X143837200Y-45767000I0J237500D01*
G01*
G37*
G36*
G01*
X145562200Y-45767000D02*
X145562200Y-45292000D01*
G75*
G02*
X145799700Y-45054500I237500J0D01*
G01*
X146399700Y-45054500D01*
G75*
G02*
X146637200Y-45292000I0J-237500D01*
G01*
X146637200Y-45767000D01*
G75*
G02*
X146399700Y-46004500I-237500J0D01*
G01*
X145799700Y-46004500D01*
G75*
G02*
X145562200Y-45767000I0J237500D01*
G01*
G37*
%TD*%
%TO.C,C28*%
G36*
G01*
X84837900Y-48276500D02*
X84837900Y-48751500D01*
G75*
G02*
X84600400Y-48989000I-237500J0D01*
G01*
X84000400Y-48989000D01*
G75*
G02*
X83762900Y-48751500I0J237500D01*
G01*
X83762900Y-48276500D01*
G75*
G02*
X84000400Y-48039000I237500J0D01*
G01*
X84600400Y-48039000D01*
G75*
G02*
X84837900Y-48276500I0J-237500D01*
G01*
G37*
G36*
G01*
X83112900Y-48276500D02*
X83112900Y-48751500D01*
G75*
G02*
X82875400Y-48989000I-237500J0D01*
G01*
X82275400Y-48989000D01*
G75*
G02*
X82037900Y-48751500I0J237500D01*
G01*
X82037900Y-48276500D01*
G75*
G02*
X82275400Y-48039000I237500J0D01*
G01*
X82875400Y-48039000D01*
G75*
G02*
X83112900Y-48276500I0J-237500D01*
G01*
G37*
%TD*%
%TO.C,C31*%
G36*
G01*
X82678700Y-53408398D02*
X82678700Y-55608402D01*
G75*
G02*
X82428702Y-55858400I-249998J0D01*
G01*
X81603698Y-55858400D01*
G75*
G02*
X81353700Y-55608402I0J249998D01*
G01*
X81353700Y-53408398D01*
G75*
G02*
X81603698Y-53158400I249998J0D01*
G01*
X82428702Y-53158400D01*
G75*
G02*
X82678700Y-53408398I0J-249998D01*
G01*
G37*
G36*
G01*
X85803700Y-53408398D02*
X85803700Y-55608402D01*
G75*
G02*
X85553702Y-55858400I-249998J0D01*
G01*
X84728698Y-55858400D01*
G75*
G02*
X84478700Y-55608402I0J249998D01*
G01*
X84478700Y-53408398D01*
G75*
G02*
X84728698Y-53158400I249998J0D01*
G01*
X85553702Y-53158400D01*
G75*
G02*
X85803700Y-53408398I0J-249998D01*
G01*
G37*
%TD*%
%TO.C,C33*%
G36*
G01*
X95734902Y-10860600D02*
X94434898Y-10860600D01*
G75*
G02*
X94184900Y-10610602I0J249998D01*
G01*
X94184900Y-9785598D01*
G75*
G02*
X94434898Y-9535600I249998J0D01*
G01*
X95734902Y-9535600D01*
G75*
G02*
X95984900Y-9785598I0J-249998D01*
G01*
X95984900Y-10610602D01*
G75*
G02*
X95734902Y-10860600I-249998J0D01*
G01*
G37*
G36*
G01*
X95734902Y-7735600D02*
X94434898Y-7735600D01*
G75*
G02*
X94184900Y-7485602I0J249998D01*
G01*
X94184900Y-6660598D01*
G75*
G02*
X94434898Y-6410600I249998J0D01*
G01*
X95734902Y-6410600D01*
G75*
G02*
X95984900Y-6660598I0J-249998D01*
G01*
X95984900Y-7485602D01*
G75*
G02*
X95734902Y-7735600I-249998J0D01*
G01*
G37*
%TD*%
%TO.C,C35*%
G36*
G01*
X99817102Y-12537400D02*
X97617098Y-12537400D01*
G75*
G02*
X97367100Y-12287402I0J249998D01*
G01*
X97367100Y-11462398D01*
G75*
G02*
X97617098Y-11212400I249998J0D01*
G01*
X99817102Y-11212400D01*
G75*
G02*
X100067100Y-11462398I0J-249998D01*
G01*
X100067100Y-12287402D01*
G75*
G02*
X99817102Y-12537400I-249998J0D01*
G01*
G37*
G36*
G01*
X99817102Y-9412400D02*
X97617098Y-9412400D01*
G75*
G02*
X97367100Y-9162402I0J249998D01*
G01*
X97367100Y-8337398D01*
G75*
G02*
X97617098Y-8087400I249998J0D01*
G01*
X99817102Y-8087400D01*
G75*
G02*
X100067100Y-8337398I0J-249998D01*
G01*
X100067100Y-9162402D01*
G75*
G02*
X99817102Y-9412400I-249998J0D01*
G01*
G37*
%TD*%
D12*
%TO.C,J1*%
X190220600Y-19723100D03*
D13*
X190220600Y-17183100D03*
X190220600Y-14643100D03*
X190220600Y-12103100D03*
X190220600Y-9563100D03*
X190220600Y-7023100D03*
X190220600Y-4483100D03*
X190220600Y-1943100D03*
%TD*%
D12*
%TO.C,J2*%
X119481600Y-50838100D03*
D13*
X122021600Y-50838100D03*
X124561600Y-50838100D03*
%TD*%
D12*
%TO.C,J3*%
X170027600Y-5054600D03*
D13*
X170027600Y-2514600D03*
X172567600Y-5054600D03*
X172567600Y-2514600D03*
X175107600Y-5054600D03*
X175107600Y-2514600D03*
X177647600Y-5054600D03*
X177647600Y-2514600D03*
X180187600Y-5054600D03*
X180187600Y-2514600D03*
%TD*%
D12*
%TO.C,J4*%
X184658000Y-19646900D03*
D13*
X184658000Y-17106900D03*
X184658000Y-14566900D03*
%TD*%
D12*
%TO.C,J5*%
X68529200Y-5880100D03*
D13*
X65989200Y-5880100D03*
X63449200Y-5880100D03*
%TD*%
%TO.C,J6*%
G36*
G01*
X197575800Y-42061500D02*
X196225800Y-42061500D01*
G75*
G02*
X195975800Y-41811500I0J250000D01*
G01*
X195975800Y-40611500D01*
G75*
G02*
X196225800Y-40361500I250000J0D01*
G01*
X197575800Y-40361500D01*
G75*
G02*
X197825800Y-40611500I0J-250000D01*
G01*
X197825800Y-41811500D01*
G75*
G02*
X197575800Y-42061500I-250000J0D01*
G01*
G37*
D14*
X196900800Y-38711500D03*
X196900800Y-36211500D03*
X196900800Y-33711500D03*
X196900800Y-31211500D03*
X196900800Y-28711500D03*
%TD*%
D13*
%TO.C,J7*%
X124485400Y-55054500D03*
X121945400Y-55054500D03*
D12*
X119405400Y-55054500D03*
%TD*%
%TO.C,J8*%
X197434200Y-22123400D03*
D13*
X197434200Y-19583400D03*
X197434200Y-17043400D03*
X197434200Y-14503400D03*
X197434200Y-11963400D03*
X197434200Y-9423400D03*
X197434200Y-6883400D03*
X197434200Y-4343400D03*
X197434200Y-1803400D03*
%TD*%
D12*
%TO.C,J9*%
X196850000Y-55397400D03*
D13*
X196850000Y-52857400D03*
X196850000Y-50317400D03*
X196850000Y-47777400D03*
%TD*%
%TO.C,J10*%
X163733480Y-55102760D03*
D12*
X166273480Y-55102760D03*
%TD*%
%TO.C,J11*%
X159639000Y-55102760D03*
D13*
X157099000Y-55102760D03*
%TD*%
D12*
%TO.C,J12*%
X152948640Y-55128160D03*
D13*
X150408640Y-55128160D03*
%TD*%
%TO.C,J13*%
X163753800Y-51117500D03*
D12*
X166293800Y-51117500D03*
%TD*%
D13*
%TO.C,J14*%
X157111700Y-51104800D03*
D12*
X159651700Y-51104800D03*
%TD*%
%TO.C,J15*%
X152946100Y-51092100D03*
D13*
X150406100Y-51092100D03*
%TD*%
D12*
%TO.C,J16*%
X96507300Y-55524400D03*
D13*
X93967300Y-55524400D03*
%TD*%
D12*
%TO.C,J17*%
X66548000Y-55105300D03*
D13*
X69088000Y-55105300D03*
X71628000Y-55105300D03*
%TD*%
D15*
%TO.C,J18*%
X114142500Y-40433400D03*
X113192500Y-40433400D03*
X105492500Y-40433400D03*
X106592500Y-40433400D03*
X107692500Y-40433400D03*
X108792500Y-40433400D03*
X109892500Y-40433400D03*
X110992500Y-40433400D03*
X112092500Y-40433400D03*
D16*
X103942500Y-40433400D03*
X115092500Y-44733400D03*
D17*
X115092500Y-50933400D03*
D18*
X115092500Y-55083400D03*
D19*
X101592500Y-55533400D03*
%TD*%
D20*
%TO.C,J19*%
X71120000Y-28063200D03*
G36*
G01*
X69570000Y-22063200D02*
X72670000Y-22063200D01*
G75*
G02*
X72920000Y-22313200I0J-250000D01*
G01*
X72920000Y-23813200D01*
G75*
G02*
X72670000Y-24063200I-250000J0D01*
G01*
X69570000Y-24063200D01*
G75*
G02*
X69320000Y-23813200I0J250000D01*
G01*
X69320000Y-22313200D01*
G75*
G02*
X69570000Y-22063200I250000J0D01*
G01*
G37*
%TD*%
%TO.C,J20*%
G36*
G01*
X69570000Y-38052500D02*
X72670000Y-38052500D01*
G75*
G02*
X72920000Y-38302500I0J-250000D01*
G01*
X72920000Y-39802500D01*
G75*
G02*
X72670000Y-40052500I-250000J0D01*
G01*
X69570000Y-40052500D01*
G75*
G02*
X69320000Y-39802500I0J250000D01*
G01*
X69320000Y-38302500D01*
G75*
G02*
X69570000Y-38052500I250000J0D01*
G01*
G37*
X71120000Y-44052500D03*
%TD*%
D13*
%TO.C,J21*%
X63461900Y-14363700D03*
X66001900Y-14363700D03*
D12*
X68541900Y-14363700D03*
%TD*%
D13*
%TO.C,J22*%
X63461900Y-10147300D03*
X66001900Y-10147300D03*
D12*
X68541900Y-10147300D03*
%TD*%
D21*
%TO.C,K1*%
X93256100Y-50253900D03*
D22*
X99256100Y-48253900D03*
X99256100Y-36053900D03*
X87256100Y-36053900D03*
X87256100Y-48253900D03*
%TD*%
%TO.C,K2*%
X187712600Y-54679100D03*
X175512600Y-54679100D03*
X175512600Y-42679100D03*
X187712600Y-42679100D03*
D21*
X189712600Y-48679100D03*
%TD*%
D23*
%TO.C,L1*%
X83873500Y-42519600D03*
X88973500Y-42519600D03*
%TD*%
D24*
%TO.C,Q7*%
X93284000Y-46180000D03*
X94234000Y-43180000D03*
X92334000Y-43180000D03*
%TD*%
D25*
%TO.C,Q8*%
X184061100Y-48602900D03*
X181061100Y-47652900D03*
X181061100Y-49552900D03*
%TD*%
%TO.C,R13*%
G36*
G01*
X118967700Y-45774600D02*
X118967700Y-46249600D01*
G75*
G02*
X118730200Y-46487100I-237500J0D01*
G01*
X118230200Y-46487100D01*
G75*
G02*
X117992700Y-46249600I0J237500D01*
G01*
X117992700Y-45774600D01*
G75*
G02*
X118230200Y-45537100I237500J0D01*
G01*
X118730200Y-45537100D01*
G75*
G02*
X118967700Y-45774600I0J-237500D01*
G01*
G37*
G36*
G01*
X120792700Y-45774600D02*
X120792700Y-46249600D01*
G75*
G02*
X120555200Y-46487100I-237500J0D01*
G01*
X120055200Y-46487100D01*
G75*
G02*
X119817700Y-46249600I0J237500D01*
G01*
X119817700Y-45774600D01*
G75*
G02*
X120055200Y-45537100I237500J0D01*
G01*
X120555200Y-45537100D01*
G75*
G02*
X120792700Y-45774600I0J-237500D01*
G01*
G37*
%TD*%
%TO.C,R15*%
G36*
G01*
X92818400Y-39919900D02*
X92818400Y-40394900D01*
G75*
G02*
X92580900Y-40632400I-237500J0D01*
G01*
X92080900Y-40632400D01*
G75*
G02*
X91843400Y-40394900I0J237500D01*
G01*
X91843400Y-39919900D01*
G75*
G02*
X92080900Y-39682400I237500J0D01*
G01*
X92580900Y-39682400D01*
G75*
G02*
X92818400Y-39919900I0J-237500D01*
G01*
G37*
G36*
G01*
X94643400Y-39919900D02*
X94643400Y-40394900D01*
G75*
G02*
X94405900Y-40632400I-237500J0D01*
G01*
X93905900Y-40632400D01*
G75*
G02*
X93668400Y-40394900I0J237500D01*
G01*
X93668400Y-39919900D01*
G75*
G02*
X93905900Y-39682400I237500J0D01*
G01*
X94405900Y-39682400D01*
G75*
G02*
X94643400Y-39919900I0J-237500D01*
G01*
G37*
%TD*%
%TO.C,R16*%
G36*
G01*
X95996300Y-45373300D02*
X95996300Y-44898300D01*
G75*
G02*
X96233800Y-44660800I237500J0D01*
G01*
X96733800Y-44660800D01*
G75*
G02*
X96971300Y-44898300I0J-237500D01*
G01*
X96971300Y-45373300D01*
G75*
G02*
X96733800Y-45610800I-237500J0D01*
G01*
X96233800Y-45610800D01*
G75*
G02*
X95996300Y-45373300I0J237500D01*
G01*
G37*
G36*
G01*
X97821300Y-45373300D02*
X97821300Y-44898300D01*
G75*
G02*
X98058800Y-44660800I237500J0D01*
G01*
X98558800Y-44660800D01*
G75*
G02*
X98796300Y-44898300I0J-237500D01*
G01*
X98796300Y-45373300D01*
G75*
G02*
X98558800Y-45610800I-237500J0D01*
G01*
X98058800Y-45610800D01*
G75*
G02*
X97821300Y-45373300I0J237500D01*
G01*
G37*
%TD*%
%TO.C,R17*%
G36*
G01*
X177782400Y-49792900D02*
X177782400Y-49317900D01*
G75*
G02*
X178019900Y-49080400I237500J0D01*
G01*
X178519900Y-49080400D01*
G75*
G02*
X178757400Y-49317900I0J-237500D01*
G01*
X178757400Y-49792900D01*
G75*
G02*
X178519900Y-50030400I-237500J0D01*
G01*
X178019900Y-50030400D01*
G75*
G02*
X177782400Y-49792900I0J237500D01*
G01*
G37*
G36*
G01*
X175957400Y-49792900D02*
X175957400Y-49317900D01*
G75*
G02*
X176194900Y-49080400I237500J0D01*
G01*
X176694900Y-49080400D01*
G75*
G02*
X176932400Y-49317900I0J-237500D01*
G01*
X176932400Y-49792900D01*
G75*
G02*
X176694900Y-50030400I-237500J0D01*
G01*
X176194900Y-50030400D01*
G75*
G02*
X175957400Y-49792900I0J237500D01*
G01*
G37*
%TD*%
%TO.C,R18*%
G36*
G01*
X184222400Y-44997200D02*
X183747400Y-44997200D01*
G75*
G02*
X183509900Y-44759700I0J237500D01*
G01*
X183509900Y-44259700D01*
G75*
G02*
X183747400Y-44022200I237500J0D01*
G01*
X184222400Y-44022200D01*
G75*
G02*
X184459900Y-44259700I0J-237500D01*
G01*
X184459900Y-44759700D01*
G75*
G02*
X184222400Y-44997200I-237500J0D01*
G01*
G37*
G36*
G01*
X184222400Y-43172200D02*
X183747400Y-43172200D01*
G75*
G02*
X183509900Y-42934700I0J237500D01*
G01*
X183509900Y-42434700D01*
G75*
G02*
X183747400Y-42197200I237500J0D01*
G01*
X184222400Y-42197200D01*
G75*
G02*
X184459900Y-42434700I0J-237500D01*
G01*
X184459900Y-42934700D01*
G75*
G02*
X184222400Y-43172200I-237500J0D01*
G01*
G37*
%TD*%
%TO.C,R19*%
G36*
G01*
X76552600Y-46503600D02*
X76552600Y-46028600D01*
G75*
G02*
X76790100Y-45791100I237500J0D01*
G01*
X77290100Y-45791100D01*
G75*
G02*
X77527600Y-46028600I0J-237500D01*
G01*
X77527600Y-46503600D01*
G75*
G02*
X77290100Y-46741100I-237500J0D01*
G01*
X76790100Y-46741100D01*
G75*
G02*
X76552600Y-46503600I0J237500D01*
G01*
G37*
G36*
G01*
X78377600Y-46503600D02*
X78377600Y-46028600D01*
G75*
G02*
X78615100Y-45791100I237500J0D01*
G01*
X79115100Y-45791100D01*
G75*
G02*
X79352600Y-46028600I0J-237500D01*
G01*
X79352600Y-46503600D01*
G75*
G02*
X79115100Y-46741100I-237500J0D01*
G01*
X78615100Y-46741100D01*
G75*
G02*
X78377600Y-46503600I0J237500D01*
G01*
G37*
%TD*%
%TO.C,R20*%
G36*
G01*
X76978500Y-37206100D02*
X77453500Y-37206100D01*
G75*
G02*
X77691000Y-37443600I0J-237500D01*
G01*
X77691000Y-37943600D01*
G75*
G02*
X77453500Y-38181100I-237500J0D01*
G01*
X76978500Y-38181100D01*
G75*
G02*
X76741000Y-37943600I0J237500D01*
G01*
X76741000Y-37443600D01*
G75*
G02*
X76978500Y-37206100I237500J0D01*
G01*
G37*
G36*
G01*
X76978500Y-35381100D02*
X77453500Y-35381100D01*
G75*
G02*
X77691000Y-35618600I0J-237500D01*
G01*
X77691000Y-36118600D01*
G75*
G02*
X77453500Y-36356100I-237500J0D01*
G01*
X76978500Y-36356100D01*
G75*
G02*
X76741000Y-36118600I0J237500D01*
G01*
X76741000Y-35618600D01*
G75*
G02*
X76978500Y-35381100I237500J0D01*
G01*
G37*
%TD*%
%TO.C,R21*%
G36*
G01*
X90630200Y-51603900D02*
X90630200Y-52078900D01*
G75*
G02*
X90392700Y-52316400I-237500J0D01*
G01*
X89892700Y-52316400D01*
G75*
G02*
X89655200Y-52078900I0J237500D01*
G01*
X89655200Y-51603900D01*
G75*
G02*
X89892700Y-51366400I237500J0D01*
G01*
X90392700Y-51366400D01*
G75*
G02*
X90630200Y-51603900I0J-237500D01*
G01*
G37*
G36*
G01*
X88805200Y-51603900D02*
X88805200Y-52078900D01*
G75*
G02*
X88567700Y-52316400I-237500J0D01*
G01*
X88067700Y-52316400D01*
G75*
G02*
X87830200Y-52078900I0J237500D01*
G01*
X87830200Y-51603900D01*
G75*
G02*
X88067700Y-51366400I237500J0D01*
G01*
X88567700Y-51366400D01*
G75*
G02*
X88805200Y-51603900I0J-237500D01*
G01*
G37*
%TD*%
%TO.C,R22*%
G36*
G01*
X82275500Y-51603900D02*
X82275500Y-52078900D01*
G75*
G02*
X82038000Y-52316400I-237500J0D01*
G01*
X81538000Y-52316400D01*
G75*
G02*
X81300500Y-52078900I0J237500D01*
G01*
X81300500Y-51603900D01*
G75*
G02*
X81538000Y-51366400I237500J0D01*
G01*
X82038000Y-51366400D01*
G75*
G02*
X82275500Y-51603900I0J-237500D01*
G01*
G37*
G36*
G01*
X84100500Y-51603900D02*
X84100500Y-52078900D01*
G75*
G02*
X83863000Y-52316400I-237500J0D01*
G01*
X83363000Y-52316400D01*
G75*
G02*
X83125500Y-52078900I0J237500D01*
G01*
X83125500Y-51603900D01*
G75*
G02*
X83363000Y-51366400I237500J0D01*
G01*
X83863000Y-51366400D01*
G75*
G02*
X84100500Y-51603900I0J-237500D01*
G01*
G37*
%TD*%
%TO.C,R26*%
G36*
G01*
X96929400Y-4652000D02*
X96929400Y-5127000D01*
G75*
G02*
X96691900Y-5364500I-237500J0D01*
G01*
X96191900Y-5364500D01*
G75*
G02*
X95954400Y-5127000I0J237500D01*
G01*
X95954400Y-4652000D01*
G75*
G02*
X96191900Y-4414500I237500J0D01*
G01*
X96691900Y-4414500D01*
G75*
G02*
X96929400Y-4652000I0J-237500D01*
G01*
G37*
G36*
G01*
X95104400Y-4652000D02*
X95104400Y-5127000D01*
G75*
G02*
X94866900Y-5364500I-237500J0D01*
G01*
X94366900Y-5364500D01*
G75*
G02*
X94129400Y-5127000I0J237500D01*
G01*
X94129400Y-4652000D01*
G75*
G02*
X94366900Y-4414500I237500J0D01*
G01*
X94866900Y-4414500D01*
G75*
G02*
X95104400Y-4652000I0J-237500D01*
G01*
G37*
%TD*%
D26*
%TO.C,TP20*%
X139738100Y-16789400D03*
%TD*%
%TO.C,TP21*%
X134962900Y-35179000D03*
%TD*%
D27*
%TO.C,U2*%
X78696200Y-41658800D03*
D28*
X79978700Y-41658800D03*
D29*
X78463700Y-41896300D03*
G36*
G01*
X77758700Y-44216300D02*
X77758700Y-43491300D01*
G75*
G02*
X77821200Y-43428800I62500J0D01*
G01*
X77946200Y-43428800D01*
G75*
G02*
X78008700Y-43491300I0J-62500D01*
G01*
X78008700Y-44216300D01*
G75*
G02*
X77946200Y-44278800I-62500J0D01*
G01*
X77821200Y-44278800D01*
G75*
G02*
X77758700Y-44216300I0J62500D01*
G01*
G37*
G36*
G01*
X78258700Y-44216300D02*
X78258700Y-43491300D01*
G75*
G02*
X78321200Y-43428800I62500J0D01*
G01*
X78446200Y-43428800D01*
G75*
G02*
X78508700Y-43491300I0J-62500D01*
G01*
X78508700Y-44216300D01*
G75*
G02*
X78446200Y-44278800I-62500J0D01*
G01*
X78321200Y-44278800D01*
G75*
G02*
X78258700Y-44216300I0J62500D01*
G01*
G37*
G36*
G01*
X78758700Y-44216300D02*
X78758700Y-43491300D01*
G75*
G02*
X78821200Y-43428800I62500J0D01*
G01*
X78946200Y-43428800D01*
G75*
G02*
X79008700Y-43491300I0J-62500D01*
G01*
X79008700Y-44216300D01*
G75*
G02*
X78946200Y-44278800I-62500J0D01*
G01*
X78821200Y-44278800D01*
G75*
G02*
X78758700Y-44216300I0J62500D01*
G01*
G37*
G36*
G01*
X79258700Y-44216300D02*
X79258700Y-43491300D01*
G75*
G02*
X79321200Y-43428800I62500J0D01*
G01*
X79446200Y-43428800D01*
G75*
G02*
X79508700Y-43491300I0J-62500D01*
G01*
X79508700Y-44216300D01*
G75*
G02*
X79446200Y-44278800I-62500J0D01*
G01*
X79321200Y-44278800D01*
G75*
G02*
X79258700Y-44216300I0J62500D01*
G01*
G37*
G36*
G01*
X79758700Y-44216300D02*
X79758700Y-43491300D01*
G75*
G02*
X79821200Y-43428800I62500J0D01*
G01*
X79946200Y-43428800D01*
G75*
G02*
X80008700Y-43491300I0J-62500D01*
G01*
X80008700Y-44216300D01*
G75*
G02*
X79946200Y-44278800I-62500J0D01*
G01*
X79821200Y-44278800D01*
G75*
G02*
X79758700Y-44216300I0J62500D01*
G01*
G37*
G36*
G01*
X80258700Y-44216300D02*
X80258700Y-43491300D01*
G75*
G02*
X80321200Y-43428800I62500J0D01*
G01*
X80446200Y-43428800D01*
G75*
G02*
X80508700Y-43491300I0J-62500D01*
G01*
X80508700Y-44216300D01*
G75*
G02*
X80446200Y-44278800I-62500J0D01*
G01*
X80321200Y-44278800D01*
G75*
G02*
X80258700Y-44216300I0J62500D01*
G01*
G37*
G36*
G01*
X80728700Y-43146300D02*
X80728700Y-43021300D01*
G75*
G02*
X80791200Y-42958800I62500J0D01*
G01*
X81516200Y-42958800D01*
G75*
G02*
X81578700Y-43021300I0J-62500D01*
G01*
X81578700Y-43146300D01*
G75*
G02*
X81516200Y-43208800I-62500J0D01*
G01*
X80791200Y-43208800D01*
G75*
G02*
X80728700Y-43146300I0J62500D01*
G01*
G37*
G36*
G01*
X80728700Y-42646300D02*
X80728700Y-42521300D01*
G75*
G02*
X80791200Y-42458800I62500J0D01*
G01*
X81516200Y-42458800D01*
G75*
G02*
X81578700Y-42521300I0J-62500D01*
G01*
X81578700Y-42646300D01*
G75*
G02*
X81516200Y-42708800I-62500J0D01*
G01*
X80791200Y-42708800D01*
G75*
G02*
X80728700Y-42646300I0J62500D01*
G01*
G37*
G36*
G01*
X80728700Y-42146300D02*
X80728700Y-42021300D01*
G75*
G02*
X80791200Y-41958800I62500J0D01*
G01*
X81516200Y-41958800D01*
G75*
G02*
X81578700Y-42021300I0J-62500D01*
G01*
X81578700Y-42146300D01*
G75*
G02*
X81516200Y-42208800I-62500J0D01*
G01*
X80791200Y-42208800D01*
G75*
G02*
X80728700Y-42146300I0J62500D01*
G01*
G37*
G36*
G01*
X80728700Y-41646300D02*
X80728700Y-41521300D01*
G75*
G02*
X80791200Y-41458800I62500J0D01*
G01*
X81516200Y-41458800D01*
G75*
G02*
X81578700Y-41521300I0J-62500D01*
G01*
X81578700Y-41646300D01*
G75*
G02*
X81516200Y-41708800I-62500J0D01*
G01*
X80791200Y-41708800D01*
G75*
G02*
X80728700Y-41646300I0J62500D01*
G01*
G37*
G36*
G01*
X80728700Y-41146300D02*
X80728700Y-41021300D01*
G75*
G02*
X80791200Y-40958800I62500J0D01*
G01*
X81516200Y-40958800D01*
G75*
G02*
X81578700Y-41021300I0J-62500D01*
G01*
X81578700Y-41146300D01*
G75*
G02*
X81516200Y-41208800I-62500J0D01*
G01*
X80791200Y-41208800D01*
G75*
G02*
X80728700Y-41146300I0J62500D01*
G01*
G37*
G36*
G01*
X80728700Y-40646300D02*
X80728700Y-40521300D01*
G75*
G02*
X80791200Y-40458800I62500J0D01*
G01*
X81516200Y-40458800D01*
G75*
G02*
X81578700Y-40521300I0J-62500D01*
G01*
X81578700Y-40646300D01*
G75*
G02*
X81516200Y-40708800I-62500J0D01*
G01*
X80791200Y-40708800D01*
G75*
G02*
X80728700Y-40646300I0J62500D01*
G01*
G37*
G36*
G01*
X80258700Y-40176300D02*
X80258700Y-39451300D01*
G75*
G02*
X80321200Y-39388800I62500J0D01*
G01*
X80446200Y-39388800D01*
G75*
G02*
X80508700Y-39451300I0J-62500D01*
G01*
X80508700Y-40176300D01*
G75*
G02*
X80446200Y-40238800I-62500J0D01*
G01*
X80321200Y-40238800D01*
G75*
G02*
X80258700Y-40176300I0J62500D01*
G01*
G37*
G36*
G01*
X79758700Y-40176300D02*
X79758700Y-39451300D01*
G75*
G02*
X79821200Y-39388800I62500J0D01*
G01*
X79946200Y-39388800D01*
G75*
G02*
X80008700Y-39451300I0J-62500D01*
G01*
X80008700Y-40176300D01*
G75*
G02*
X79946200Y-40238800I-62500J0D01*
G01*
X79821200Y-40238800D01*
G75*
G02*
X79758700Y-40176300I0J62500D01*
G01*
G37*
G36*
G01*
X78758700Y-40176300D02*
X78758700Y-39451300D01*
G75*
G02*
X78821200Y-39388800I62500J0D01*
G01*
X78946200Y-39388800D01*
G75*
G02*
X79008700Y-39451300I0J-62500D01*
G01*
X79008700Y-40176300D01*
G75*
G02*
X78946200Y-40238800I-62500J0D01*
G01*
X78821200Y-40238800D01*
G75*
G02*
X78758700Y-40176300I0J62500D01*
G01*
G37*
G36*
G01*
X78258700Y-40176300D02*
X78258700Y-39451300D01*
G75*
G02*
X78321200Y-39388800I62500J0D01*
G01*
X78446200Y-39388800D01*
G75*
G02*
X78508700Y-39451300I0J-62500D01*
G01*
X78508700Y-40176300D01*
G75*
G02*
X78446200Y-40238800I-62500J0D01*
G01*
X78321200Y-40238800D01*
G75*
G02*
X78258700Y-40176300I0J62500D01*
G01*
G37*
G36*
G01*
X77758700Y-40176300D02*
X77758700Y-39451300D01*
G75*
G02*
X77821200Y-39388800I62500J0D01*
G01*
X77946200Y-39388800D01*
G75*
G02*
X78008700Y-39451300I0J-62500D01*
G01*
X78008700Y-40176300D01*
G75*
G02*
X77946200Y-40238800I-62500J0D01*
G01*
X77821200Y-40238800D01*
G75*
G02*
X77758700Y-40176300I0J62500D01*
G01*
G37*
G36*
G01*
X76688700Y-40646300D02*
X76688700Y-40521300D01*
G75*
G02*
X76751200Y-40458800I62500J0D01*
G01*
X77476200Y-40458800D01*
G75*
G02*
X77538700Y-40521300I0J-62500D01*
G01*
X77538700Y-40646300D01*
G75*
G02*
X77476200Y-40708800I-62500J0D01*
G01*
X76751200Y-40708800D01*
G75*
G02*
X76688700Y-40646300I0J62500D01*
G01*
G37*
G36*
G01*
X76688700Y-41146300D02*
X76688700Y-41021300D01*
G75*
G02*
X76751200Y-40958800I62500J0D01*
G01*
X77476200Y-40958800D01*
G75*
G02*
X77538700Y-41021300I0J-62500D01*
G01*
X77538700Y-41146300D01*
G75*
G02*
X77476200Y-41208800I-62500J0D01*
G01*
X76751200Y-41208800D01*
G75*
G02*
X76688700Y-41146300I0J62500D01*
G01*
G37*
G36*
G01*
X76688700Y-41646300D02*
X76688700Y-41521300D01*
G75*
G02*
X76751200Y-41458800I62500J0D01*
G01*
X77476200Y-41458800D01*
G75*
G02*
X77538700Y-41521300I0J-62500D01*
G01*
X77538700Y-41646300D01*
G75*
G02*
X77476200Y-41708800I-62500J0D01*
G01*
X76751200Y-41708800D01*
G75*
G02*
X76688700Y-41646300I0J62500D01*
G01*
G37*
G36*
G01*
X76688700Y-42146300D02*
X76688700Y-42021300D01*
G75*
G02*
X76751200Y-41958800I62500J0D01*
G01*
X77476200Y-41958800D01*
G75*
G02*
X77538700Y-42021300I0J-62500D01*
G01*
X77538700Y-42146300D01*
G75*
G02*
X77476200Y-42208800I-62500J0D01*
G01*
X76751200Y-42208800D01*
G75*
G02*
X76688700Y-42146300I0J62500D01*
G01*
G37*
G36*
G01*
X76688700Y-42646300D02*
X76688700Y-42521300D01*
G75*
G02*
X76751200Y-42458800I62500J0D01*
G01*
X77476200Y-42458800D01*
G75*
G02*
X77538700Y-42521300I0J-62500D01*
G01*
X77538700Y-42646300D01*
G75*
G02*
X77476200Y-42708800I-62500J0D01*
G01*
X76751200Y-42708800D01*
G75*
G02*
X76688700Y-42646300I0J62500D01*
G01*
G37*
G36*
G01*
X76688700Y-43146300D02*
X76688700Y-43021300D01*
G75*
G02*
X76751200Y-42958800I62500J0D01*
G01*
X77476200Y-42958800D01*
G75*
G02*
X77538700Y-43021300I0J-62500D01*
G01*
X77538700Y-43146300D01*
G75*
G02*
X77476200Y-43208800I-62500J0D01*
G01*
X76751200Y-43208800D01*
G75*
G02*
X76688700Y-43146300I0J62500D01*
G01*
G37*
%TD*%
D30*
%TO.C,U4*%
X103644700Y-13309600D03*
X103644700Y-11811000D03*
X103644700Y-10287000D03*
X103644700Y-8788400D03*
D31*
X109689900Y-11049000D03*
%TD*%
D32*
%TO.C,U10*%
X143728800Y-41507300D03*
X144378800Y-41507300D03*
X145028800Y-41507300D03*
X145678800Y-41507300D03*
X145678800Y-43557300D03*
X145028800Y-43557300D03*
X144378800Y-43557300D03*
X143728800Y-43557300D03*
%TD*%
D25*
%TO.C,Q14*%
X131875660Y-9207500D03*
X128875660Y-8257500D03*
X128875660Y-10157500D03*
%TD*%
D33*
%TO.C,Q16*%
G36*
X151974471Y-35067854D02*
G01*
X151408786Y-34502169D01*
X152752289Y-33158666D01*
X153317974Y-33724351D01*
X151974471Y-35067854D01*
G37*
G36*
X149181399Y-36517423D02*
G01*
X148615714Y-35951738D01*
X149959217Y-34608235D01*
X150524902Y-35173920D01*
X149181399Y-36517423D01*
G37*
G36*
X150524902Y-37860926D02*
G01*
X149959217Y-37295241D01*
X151302720Y-35951738D01*
X151868405Y-36517423D01*
X150524902Y-37860926D01*
G37*
%TD*%
D25*
%TO.C,Q17*%
X139101700Y-50759400D03*
X139101700Y-48859400D03*
X142101700Y-49809400D03*
%TD*%
%TO.C,Q18*%
X141853920Y-55118000D03*
X138853920Y-54168000D03*
X138853920Y-56068000D03*
%TD*%
D24*
%TO.C,Q19*%
X136824680Y-41542840D03*
X138724680Y-41542840D03*
X137774680Y-44542840D03*
%TD*%
%TO.C,R43*%
G36*
G01*
X126940320Y-8779960D02*
X126465320Y-8779960D01*
G75*
G02*
X126227820Y-8542460I0J237500D01*
G01*
X126227820Y-8042460D01*
G75*
G02*
X126465320Y-7804960I237500J0D01*
G01*
X126940320Y-7804960D01*
G75*
G02*
X127177820Y-8042460I0J-237500D01*
G01*
X127177820Y-8542460D01*
G75*
G02*
X126940320Y-8779960I-237500J0D01*
G01*
G37*
G36*
G01*
X126940320Y-10604960D02*
X126465320Y-10604960D01*
G75*
G02*
X126227820Y-10367460I0J237500D01*
G01*
X126227820Y-9867460D01*
G75*
G02*
X126465320Y-9629960I237500J0D01*
G01*
X126940320Y-9629960D01*
G75*
G02*
X127177820Y-9867460I0J-237500D01*
G01*
X127177820Y-10367460D01*
G75*
G02*
X126940320Y-10604960I-237500J0D01*
G01*
G37*
%TD*%
%TO.C,R44*%
G36*
G01*
X124488760Y-9427220D02*
X124488760Y-8952220D01*
G75*
G02*
X124726260Y-8714720I237500J0D01*
G01*
X125226260Y-8714720D01*
G75*
G02*
X125463760Y-8952220I0J-237500D01*
G01*
X125463760Y-9427220D01*
G75*
G02*
X125226260Y-9664720I-237500J0D01*
G01*
X124726260Y-9664720D01*
G75*
G02*
X124488760Y-9427220I0J237500D01*
G01*
G37*
G36*
G01*
X122663760Y-9427220D02*
X122663760Y-8952220D01*
G75*
G02*
X122901260Y-8714720I237500J0D01*
G01*
X123401260Y-8714720D01*
G75*
G02*
X123638760Y-8952220I0J-237500D01*
G01*
X123638760Y-9427220D01*
G75*
G02*
X123401260Y-9664720I-237500J0D01*
G01*
X122901260Y-9664720D01*
G75*
G02*
X122663760Y-9427220I0J237500D01*
G01*
G37*
%TD*%
%TO.C,R47*%
G36*
G01*
X149854493Y-38632377D02*
X149518617Y-38968253D01*
G75*
G02*
X149182741Y-38968253I-167938J167938D01*
G01*
X148829187Y-38614699D01*
G75*
G02*
X148829187Y-38278823I167938J167938D01*
G01*
X149165063Y-37942947D01*
G75*
G02*
X149500939Y-37942947I167938J-167938D01*
G01*
X149854493Y-38296501D01*
G75*
G02*
X149854493Y-38632377I-167938J-167938D01*
G01*
G37*
G36*
G01*
X148564023Y-37341907D02*
X148228147Y-37677783D01*
G75*
G02*
X147892271Y-37677783I-167938J167938D01*
G01*
X147538717Y-37324229D01*
G75*
G02*
X147538717Y-36988353I167938J167938D01*
G01*
X147874593Y-36652477D01*
G75*
G02*
X148210469Y-36652477I167938J-167938D01*
G01*
X148564023Y-37006031D01*
G75*
G02*
X148564023Y-37341907I-167938J-167938D01*
G01*
G37*
%TD*%
%TO.C,R49*%
G36*
G01*
X137262880Y-51237980D02*
X136787880Y-51237980D01*
G75*
G02*
X136550380Y-51000480I0J237500D01*
G01*
X136550380Y-50500480D01*
G75*
G02*
X136787880Y-50262980I237500J0D01*
G01*
X137262880Y-50262980D01*
G75*
G02*
X137500380Y-50500480I0J-237500D01*
G01*
X137500380Y-51000480D01*
G75*
G02*
X137262880Y-51237980I-237500J0D01*
G01*
G37*
G36*
G01*
X137262880Y-49412980D02*
X136787880Y-49412980D01*
G75*
G02*
X136550380Y-49175480I0J237500D01*
G01*
X136550380Y-48675480D01*
G75*
G02*
X136787880Y-48437980I237500J0D01*
G01*
X137262880Y-48437980D01*
G75*
G02*
X137500380Y-48675480I0J-237500D01*
G01*
X137500380Y-49175480D01*
G75*
G02*
X137262880Y-49412980I-237500J0D01*
G01*
G37*
%TD*%
%TO.C,R50*%
G36*
G01*
X144463780Y-49488540D02*
X143988780Y-49488540D01*
G75*
G02*
X143751280Y-49251040I0J237500D01*
G01*
X143751280Y-48751040D01*
G75*
G02*
X143988780Y-48513540I237500J0D01*
G01*
X144463780Y-48513540D01*
G75*
G02*
X144701280Y-48751040I0J-237500D01*
G01*
X144701280Y-49251040D01*
G75*
G02*
X144463780Y-49488540I-237500J0D01*
G01*
G37*
G36*
G01*
X144463780Y-51313540D02*
X143988780Y-51313540D01*
G75*
G02*
X143751280Y-51076040I0J237500D01*
G01*
X143751280Y-50576040D01*
G75*
G02*
X143988780Y-50338540I237500J0D01*
G01*
X144463780Y-50338540D01*
G75*
G02*
X144701280Y-50576040I0J-237500D01*
G01*
X144701280Y-51076040D01*
G75*
G02*
X144463780Y-51313540I-237500J0D01*
G01*
G37*
%TD*%
%TO.C,R51*%
G36*
G01*
X136965700Y-56467200D02*
X136490700Y-56467200D01*
G75*
G02*
X136253200Y-56229700I0J237500D01*
G01*
X136253200Y-55729700D01*
G75*
G02*
X136490700Y-55492200I237500J0D01*
G01*
X136965700Y-55492200D01*
G75*
G02*
X137203200Y-55729700I0J-237500D01*
G01*
X137203200Y-56229700D01*
G75*
G02*
X136965700Y-56467200I-237500J0D01*
G01*
G37*
G36*
G01*
X136965700Y-54642200D02*
X136490700Y-54642200D01*
G75*
G02*
X136253200Y-54404700I0J237500D01*
G01*
X136253200Y-53904700D01*
G75*
G02*
X136490700Y-53667200I237500J0D01*
G01*
X136965700Y-53667200D01*
G75*
G02*
X137203200Y-53904700I0J-237500D01*
G01*
X137203200Y-54404700D01*
G75*
G02*
X136965700Y-54642200I-237500J0D01*
G01*
G37*
%TD*%
%TO.C,R52*%
G36*
G01*
X141838860Y-52703740D02*
X141838860Y-52228740D01*
G75*
G02*
X142076360Y-51991240I237500J0D01*
G01*
X142576360Y-51991240D01*
G75*
G02*
X142813860Y-52228740I0J-237500D01*
G01*
X142813860Y-52703740D01*
G75*
G02*
X142576360Y-52941240I-237500J0D01*
G01*
X142076360Y-52941240D01*
G75*
G02*
X141838860Y-52703740I0J237500D01*
G01*
G37*
G36*
G01*
X140013860Y-52703740D02*
X140013860Y-52228740D01*
G75*
G02*
X140251360Y-51991240I237500J0D01*
G01*
X140751360Y-51991240D01*
G75*
G02*
X140988860Y-52228740I0J-237500D01*
G01*
X140988860Y-52703740D01*
G75*
G02*
X140751360Y-52941240I-237500J0D01*
G01*
X140251360Y-52941240D01*
G75*
G02*
X140013860Y-52703740I0J237500D01*
G01*
G37*
%TD*%
%TO.C,R53*%
G36*
G01*
X136425480Y-39617660D02*
X136425480Y-39142660D01*
G75*
G02*
X136662980Y-38905160I237500J0D01*
G01*
X137162980Y-38905160D01*
G75*
G02*
X137400480Y-39142660I0J-237500D01*
G01*
X137400480Y-39617660D01*
G75*
G02*
X137162980Y-39855160I-237500J0D01*
G01*
X136662980Y-39855160D01*
G75*
G02*
X136425480Y-39617660I0J237500D01*
G01*
G37*
G36*
G01*
X138250480Y-39617660D02*
X138250480Y-39142660D01*
G75*
G02*
X138487980Y-38905160I237500J0D01*
G01*
X138987980Y-38905160D01*
G75*
G02*
X139225480Y-39142660I0J-237500D01*
G01*
X139225480Y-39617660D01*
G75*
G02*
X138987980Y-39855160I-237500J0D01*
G01*
X138487980Y-39855160D01*
G75*
G02*
X138250480Y-39617660I0J237500D01*
G01*
G37*
%TD*%
%TO.C,R54*%
G36*
G01*
X134842240Y-42418180D02*
X135317240Y-42418180D01*
G75*
G02*
X135554740Y-42655680I0J-237500D01*
G01*
X135554740Y-43155680D01*
G75*
G02*
X135317240Y-43393180I-237500J0D01*
G01*
X134842240Y-43393180D01*
G75*
G02*
X134604740Y-43155680I0J237500D01*
G01*
X134604740Y-42655680D01*
G75*
G02*
X134842240Y-42418180I237500J0D01*
G01*
G37*
G36*
G01*
X134842240Y-40593180D02*
X135317240Y-40593180D01*
G75*
G02*
X135554740Y-40830680I0J-237500D01*
G01*
X135554740Y-41330680D01*
G75*
G02*
X135317240Y-41568180I-237500J0D01*
G01*
X134842240Y-41568180D01*
G75*
G02*
X134604740Y-41330680I0J237500D01*
G01*
X134604740Y-40830680D01*
G75*
G02*
X134842240Y-40593180I237500J0D01*
G01*
G37*
%TD*%
M02*
