M48
; DRILL file {KiCad (5.1.8)-1} date 04/23/22 21:59:27
; FORMAT={-:-/ absolute / inch / decimal}
; #@! TF.CreationDate,2022-04-23T21:59:27-07:00
; #@! TF.GenerationSoftware,Kicad,Pcbnew,(5.1.8)-1
; #@! TF.FileFunction,Plated,1,2,PTH
FMAT,2
INCH
T1C0.0157
T2C0.0197
T3C0.0295
T4C0.0335
T5C0.0394
T6C0.0512
T7C0.0551
%
G90
G05
T1
X2.5055Y-1.975
X2.826Y-0.3415
X2.826Y-0.484
X2.826Y-0.6265
X2.8705Y-0.716
X2.9317Y-1.7509
X2.951Y-2.1185
X2.9685Y-1.201
X2.9725Y-1.4135
X3.0268Y-2.0165
X3.0953Y-2.1048
X3.1675Y-2.122
X3.1928Y-1.9008
X3.202Y-1.815
X3.2605Y-1.9795
X3.378Y-0.279
X3.378Y-0.431
X3.378Y-0.5825
X3.53Y-1.486
X3.5875Y-1.504
X3.883Y-1.067
X3.9109Y-0.2727
X3.9837Y-1.0657
X3.9845Y-1.111
X4.0425Y-0.9125
X4.1946Y-1.0824
X4.2378Y-1.1194
X4.2408Y-0.9102
X4.3194Y-0.3307
X4.329Y-1.2184
X4.4132Y-1.2846
X4.5292Y-1.527
X4.597Y-1.8135
X4.68Y-1.325
X4.7031Y-1.3568
X4.725Y-1.5056
X4.7774Y-0.2855
X4.7928Y-0.3632
X4.7945Y-0.5029
X4.8375Y-1.6081
X4.8379Y-1.5056
X4.8425Y-1.7274
X4.8489Y-0.5022
X4.9256Y-0.4125
X4.9336Y-1.5173
X4.9925Y-1.3905
X5.0205Y-0.559
X5.024Y-0.493
X5.0295Y-1.6975
X5.0496Y-2.1178
X5.0684Y-1.3629
X5.0747Y-1.324
X5.0788Y-1.6696
X5.1037Y-1.4564
X5.1055Y-0.507
X5.115Y-0.577
X5.144Y-1.4249
X5.147Y-1.4893
X5.1625Y-2.0155
X5.1816Y-1.6571
X5.182Y-0.613
X5.1862Y-1.5419
X5.1885Y-1.583
X5.205Y-1.7755
X5.2129Y-2.0139
X5.2159Y-1.4638
X5.2659Y-0.3473
X5.2887Y-1.2029
X5.304Y-1.975
X5.3179Y-2.0892
X5.3337Y-1.1137
X5.334Y-0.4714
X5.3414Y-1.8038
X5.346Y-1.9879
X5.351Y-2.0615
X5.3549Y-0.376
X5.3604Y-0.6927
X5.384Y-0.3495
X5.39Y-0.4125
X5.3955Y-0.6305
X5.405Y-0.148
X5.417Y-0.2828
X5.422Y-0.777
X5.4266Y-0.4717
X5.4266Y-1.5177
X5.436Y-1.8264
X5.451Y-2.0638
X5.472Y-0.148
X5.4725Y-0.2765
X5.4935Y-1.8781
X5.5287Y-0.2918
X5.5296Y-0.4125
X5.5497Y-1.4989
X5.5605Y-1.7901
X5.569Y-0.4125
X5.573Y-1.6479
X5.602Y-1.9121
X5.6111Y-1.703
X5.613Y-0.854
X5.617Y-0.9945
X5.6205Y-1.5163
X5.6485Y-1.256
X5.649Y-1.0355
X5.6665Y-0.529
X5.6842Y-1.8432
X5.6854Y-2.0892
X5.7005Y-1.4752
X5.7241Y-2.0089
X5.7665Y-1.257
X5.7778Y-0.9108
X5.784Y-1.9333
X5.7885Y-1.6065
X5.789Y-2.1193
X5.815Y-0.7295
X5.819Y-1.1045
X5.8224Y-1.9517
X5.8258Y-1.5801
X5.843Y-1.6725
X5.852Y-1.184
X5.8569Y-1.9184
X5.857Y-1.5561
X5.863Y-1.2708
X5.9096Y-1.6155
X5.919Y-1.5771
X5.9317Y-1.7292
X5.9426Y-1.6742
X5.9475Y-0.156
X5.9585Y-1.5755
X5.991Y-1.519
X6.0185Y-1.1045
X6.019Y-1.0545
X6.02Y-0.7835
X6.021Y-1.272
X6.0315Y-0.8771
X6.0434Y-1.5283
X6.0553Y-1.0348
X6.063Y-1.2306
X6.0652Y-1.1912
X6.066Y-0.627
X6.0825Y-0.4635
X6.089Y-1.0695
X6.091Y-0.8775
X6.1055Y-1.2985
X6.1135Y-1.5836
X6.119Y-1.165
X6.143Y-1.255
X6.1615Y-0.4145
X6.1625Y-0.735
X6.174Y-0.995
X6.188Y-0.359
X6.1945Y-1.312
X6.2142Y-0.6973
X6.2195Y-1.0745
X6.2555Y-0.799
X6.2705Y-0.3635
X6.276Y-0.8583
X6.2934Y-1.5274
X6.3Y-0.681
X6.3586Y-0.8574
X6.378Y-0.6795
X6.3785Y-0.742
X6.39Y-0.6385
X6.3995Y-1.5075
X6.4415Y-0.7835
X6.4446Y-0.8275
X6.4822Y-1.3215
X6.4924Y-1.2361
X6.5025Y-1.0395
X6.5125Y-0.7915
X6.5515Y-1.489
X6.5525Y-0.0565
X6.5637Y-0.6997
X6.5922Y-0.6359
X6.6098Y-0.6712
X6.6232Y-1.2467
X6.631Y-0.7905
X6.6325Y-0.438
X6.6625Y-1.2467
X7.0Y-1.402
X7.017Y-1.108
X7.048Y-0.6252
X7.048Y-0.8005
X7.052Y-1.466
X7.0545Y-1.0731
X7.0735Y-0.9827
X7.2385Y-0.2675
X7.2705Y-1.016
X7.315Y-1.0445
X7.3355Y-0.2925
X7.353Y-0.4295
X7.368Y-1.0805
X7.3735Y-0.7345
X7.379Y-0.5795
X7.3855Y-0.8335
X7.417Y-0.8764
T2
X3.654Y-0.2646
X3.7585Y-1.4475
X5.4077Y-1.1214
T3
X3.5725Y-0.959
X3.7555Y-0.622
X4.209Y-0.611
X4.4705Y-0.222
T4
X7.752Y-1.1304
X7.752Y-1.2288
X7.752Y-1.3272
X7.752Y-1.4256
X7.752Y-1.5241
X7.752Y-1.6225
T5
X2.4985Y-0.5655
X2.5985Y-0.5655
X2.6985Y-0.5655
X6.185Y-2.1694
X6.285Y-2.1694
X6.694Y-0.099
X6.694Y-0.199
X6.794Y-0.099
X6.794Y-0.199
X6.894Y-0.099
X6.894Y-0.199
X6.994Y-0.099
X6.994Y-0.199
X7.094Y-0.099
X7.094Y-0.199
X5.9215Y-2.0115
X6.0215Y-2.0115
X7.773Y-0.071
X7.773Y-0.171
X7.773Y-0.271
X7.773Y-0.371
X7.773Y-0.471
X7.773Y-0.571
X7.773Y-0.671
X7.773Y-0.771
X7.773Y-0.871
X4.704Y-2.0015
X4.804Y-2.0015
X4.904Y-2.0015
X6.4462Y-2.1694
X6.5462Y-2.1694
X2.4985Y-0.3995
X2.5985Y-0.3995
X2.6985Y-0.3995
X4.701Y-2.1675
X4.801Y-2.1675
X4.901Y-2.1675
X3.6995Y-2.186
X3.7995Y-2.186
X6.447Y-2.0125
X6.547Y-2.0125
X7.489Y-0.0765
X7.489Y-0.1765
X7.489Y-0.2765
X7.489Y-0.3765
X7.489Y-0.4765
X7.489Y-0.5765
X7.489Y-0.6765
X7.489Y-0.7765
X6.1855Y-2.012
X6.2855Y-2.012
X2.498Y-0.2315
X2.598Y-0.2315
X2.698Y-0.2315
X7.75Y-1.881
X7.75Y-1.981
X7.75Y-2.081
X7.75Y-2.181
X2.62Y-2.1695
X2.72Y-2.1695
X2.82Y-2.1695
X7.27Y-0.5735
X7.27Y-0.6735
X7.27Y-0.7735
X5.3135Y-1.385
X5.9216Y-2.1704
X6.0216Y-2.1704
X5.5015Y-0.661
T6
X3.4353Y-1.4194
X3.4353Y-1.8998
X3.6715Y-1.9785
X3.9077Y-1.4194
X3.9077Y-1.8998
X6.9099Y-1.6803
X6.9099Y-2.1527
X7.3903Y-1.6803
X7.3903Y-2.1527
X7.469Y-1.9165
T7
X2.8Y-1.5375
X2.8Y-1.7344
X2.8Y-0.908
X2.8Y-1.1049
T0
M30
