%TF.GenerationSoftware,KiCad,Pcbnew,(5.1.8)-1*%
%TF.CreationDate,2022-04-23T21:59:24-07:00*%
%TF.ProjectId,AttitudeMotorController,41747469-7475-4646-954d-6f746f72436f,rev?*%
%TF.SameCoordinates,Original*%
%TF.FileFunction,Legend,Bot*%
%TF.FilePolarity,Positive*%
%FSLAX46Y46*%
G04 Gerber Fmt 4.6, Leading zero omitted, Abs format (unit mm)*
G04 Created by KiCad (PCBNEW (5.1.8)-1) date 2022-04-23 21:59:24*
%MOMM*%
%LPD*%
G01*
G04 APERTURE LIST*
%ADD10C,0.150000*%
%ADD11C,0.120000*%
%ADD12C,0.152400*%
%ADD13C,0.100000*%
%ADD14C,0.015000*%
G04 APERTURE END LIST*
D10*
X84333695Y-3719820D02*
X84333695Y-2719820D01*
X84095600Y-2719820D01*
X83952742Y-2767440D01*
X83857504Y-2862678D01*
X83809885Y-2957916D01*
X83762266Y-3148392D01*
X83762266Y-3291249D01*
X83809885Y-3481725D01*
X83857504Y-3576963D01*
X83952742Y-3672201D01*
X84095600Y-3719820D01*
X84333695Y-3719820D01*
X82952742Y-3672201D02*
X83047980Y-3719820D01*
X83238457Y-3719820D01*
X83333695Y-3672201D01*
X83381314Y-3576963D01*
X83381314Y-3196011D01*
X83333695Y-3100773D01*
X83238457Y-3053154D01*
X83047980Y-3053154D01*
X82952742Y-3100773D01*
X82905123Y-3196011D01*
X82905123Y-3291249D01*
X83381314Y-3386487D01*
X82095600Y-3672201D02*
X82190838Y-3719820D01*
X82381314Y-3719820D01*
X82476552Y-3672201D01*
X82524171Y-3576963D01*
X82524171Y-3196011D01*
X82476552Y-3100773D01*
X82381314Y-3053154D01*
X82190838Y-3053154D01*
X82095600Y-3100773D01*
X82047980Y-3196011D01*
X82047980Y-3291249D01*
X82524171Y-3386487D01*
X81619409Y-3053154D02*
X81619409Y-4053154D01*
X81619409Y-3100773D02*
X81524171Y-3053154D01*
X81333695Y-3053154D01*
X81238457Y-3100773D01*
X81190838Y-3148392D01*
X81143219Y-3243630D01*
X81143219Y-3529344D01*
X81190838Y-3624582D01*
X81238457Y-3672201D01*
X81333695Y-3719820D01*
X81524171Y-3719820D01*
X81619409Y-3672201D01*
X80762266Y-3672201D02*
X80619409Y-3719820D01*
X80381314Y-3719820D01*
X80286076Y-3672201D01*
X80238457Y-3624582D01*
X80190838Y-3529344D01*
X80190838Y-3434106D01*
X80238457Y-3338868D01*
X80286076Y-3291249D01*
X80381314Y-3243630D01*
X80571790Y-3196011D01*
X80667028Y-3148392D01*
X80714647Y-3100773D01*
X80762266Y-3005535D01*
X80762266Y-2910297D01*
X80714647Y-2815059D01*
X80667028Y-2767440D01*
X80571790Y-2719820D01*
X80333695Y-2719820D01*
X80190838Y-2767440D01*
X79333695Y-3053154D02*
X79333695Y-3719820D01*
X79762266Y-3053154D02*
X79762266Y-3576963D01*
X79714647Y-3672201D01*
X79619409Y-3719820D01*
X79476552Y-3719820D01*
X79381314Y-3672201D01*
X79333695Y-3624582D01*
X78857504Y-3719820D02*
X78857504Y-2719820D01*
X78857504Y-3100773D02*
X78762266Y-3053154D01*
X78571790Y-3053154D01*
X78476552Y-3100773D01*
X78428933Y-3148392D01*
X78381314Y-3243630D01*
X78381314Y-3529344D01*
X78428933Y-3624582D01*
X78476552Y-3672201D01*
X78571790Y-3719820D01*
X78762266Y-3719820D01*
X78857504Y-3672201D01*
X77190838Y-3338868D02*
X76428933Y-3338868D01*
X75333695Y-2719820D02*
X75000361Y-3719820D01*
X74667028Y-2719820D01*
X73809885Y-3719820D02*
X74381314Y-3719820D01*
X74095600Y-3719820D02*
X74095600Y-2719820D01*
X74190838Y-2862678D01*
X74286076Y-2957916D01*
X74381314Y-3005535D01*
X83095600Y-5274582D02*
X83143219Y-5322201D01*
X83286076Y-5369820D01*
X83381314Y-5369820D01*
X83524171Y-5322201D01*
X83619409Y-5226963D01*
X83667028Y-5131725D01*
X83714647Y-4941249D01*
X83714647Y-4798392D01*
X83667028Y-4607916D01*
X83619409Y-4512678D01*
X83524171Y-4417440D01*
X83381314Y-4369820D01*
X83286076Y-4369820D01*
X83143219Y-4417440D01*
X83095600Y-4465059D01*
X82667028Y-5369820D02*
X82667028Y-4369820D01*
X82238457Y-5369820D02*
X82238457Y-4846011D01*
X82286076Y-4750773D01*
X82381314Y-4703154D01*
X82524171Y-4703154D01*
X82619409Y-4750773D01*
X82667028Y-4798392D01*
X81762266Y-5369820D02*
X81762266Y-4703154D01*
X81762266Y-4893630D02*
X81714647Y-4798392D01*
X81667028Y-4750773D01*
X81571790Y-4703154D01*
X81476552Y-4703154D01*
X81143219Y-5369820D02*
X81143219Y-4703154D01*
X81143219Y-4369820D02*
X81190838Y-4417440D01*
X81143219Y-4465059D01*
X81095600Y-4417440D01*
X81143219Y-4369820D01*
X81143219Y-4465059D01*
X80714647Y-5322201D02*
X80619409Y-5369820D01*
X80428933Y-5369820D01*
X80333695Y-5322201D01*
X80286076Y-5226963D01*
X80286076Y-5179344D01*
X80333695Y-5084106D01*
X80428933Y-5036487D01*
X80571790Y-5036487D01*
X80667028Y-4988868D01*
X80714647Y-4893630D01*
X80714647Y-4846011D01*
X80667028Y-4750773D01*
X80571790Y-4703154D01*
X80428933Y-4703154D01*
X80333695Y-4750773D01*
X79095600Y-5369820D02*
X79095600Y-4369820D01*
X79095600Y-4846011D02*
X78524171Y-4846011D01*
X78524171Y-5369820D02*
X78524171Y-4369820D01*
X77619409Y-5369820D02*
X77619409Y-4846011D01*
X77667028Y-4750773D01*
X77762266Y-4703154D01*
X77952742Y-4703154D01*
X78047980Y-4750773D01*
X77619409Y-5322201D02*
X77714647Y-5369820D01*
X77952742Y-5369820D01*
X78047980Y-5322201D01*
X78095600Y-5226963D01*
X78095600Y-5131725D01*
X78047980Y-5036487D01*
X77952742Y-4988868D01*
X77714647Y-4988868D01*
X77619409Y-4941249D01*
X77143219Y-4703154D02*
X77143219Y-5560297D01*
X77190838Y-5655535D01*
X77286076Y-5703154D01*
X77333695Y-5703154D01*
X77143219Y-4369820D02*
X77190838Y-4417440D01*
X77143219Y-4465059D01*
X77095600Y-4417440D01*
X77143219Y-4369820D01*
X77143219Y-4465059D01*
X76238457Y-5369820D02*
X76238457Y-4369820D01*
X76238457Y-5322201D02*
X76333695Y-5369820D01*
X76524171Y-5369820D01*
X76619409Y-5322201D01*
X76667028Y-5274582D01*
X76714647Y-5179344D01*
X76714647Y-4893630D01*
X76667028Y-4798392D01*
X76619409Y-4750773D01*
X76524171Y-4703154D01*
X76333695Y-4703154D01*
X76238457Y-4750773D01*
X75333695Y-4703154D02*
X75333695Y-5369820D01*
X75762266Y-4703154D02*
X75762266Y-5226963D01*
X75714647Y-5322201D01*
X75619409Y-5369820D01*
X75476552Y-5369820D01*
X75381314Y-5322201D01*
X75333695Y-5274582D01*
X74857504Y-5369820D02*
X74857504Y-4369820D01*
X74762266Y-4988868D02*
X74476552Y-5369820D01*
X74476552Y-4703154D02*
X74857504Y-5084106D01*
X82571790Y-6019820D02*
X82476552Y-6019820D01*
X82381314Y-6067440D01*
X82333695Y-6115059D01*
X82286076Y-6210297D01*
X82238457Y-6400773D01*
X82238457Y-6638868D01*
X82286076Y-6829344D01*
X82333695Y-6924582D01*
X82381314Y-6972201D01*
X82476552Y-7019820D01*
X82571790Y-7019820D01*
X82667028Y-6972201D01*
X82714647Y-6924582D01*
X82762266Y-6829344D01*
X82809885Y-6638868D01*
X82809885Y-6400773D01*
X82762266Y-6210297D01*
X82714647Y-6115059D01*
X82667028Y-6067440D01*
X82571790Y-6019820D01*
X81286076Y-7019820D02*
X81857504Y-7019820D01*
X81571790Y-7019820D02*
X81571790Y-6019820D01*
X81667028Y-6162678D01*
X81762266Y-6257916D01*
X81857504Y-6305535D01*
X80143219Y-5972201D02*
X81000361Y-7257916D01*
X79619409Y-6019820D02*
X79524171Y-6019820D01*
X79428933Y-6067440D01*
X79381314Y-6115059D01*
X79333695Y-6210297D01*
X79286076Y-6400773D01*
X79286076Y-6638868D01*
X79333695Y-6829344D01*
X79381314Y-6924582D01*
X79428933Y-6972201D01*
X79524171Y-7019820D01*
X79619409Y-7019820D01*
X79714647Y-6972201D01*
X79762266Y-6924582D01*
X79809885Y-6829344D01*
X79857504Y-6638868D01*
X79857504Y-6400773D01*
X79809885Y-6210297D01*
X79762266Y-6115059D01*
X79714647Y-6067440D01*
X79619409Y-6019820D01*
X78952742Y-6019820D02*
X78333695Y-6019820D01*
X78667028Y-6400773D01*
X78524171Y-6400773D01*
X78428933Y-6448392D01*
X78381314Y-6496011D01*
X78333695Y-6591249D01*
X78333695Y-6829344D01*
X78381314Y-6924582D01*
X78428933Y-6972201D01*
X78524171Y-7019820D01*
X78809885Y-7019820D01*
X78905123Y-6972201D01*
X78952742Y-6924582D01*
X77190838Y-5972201D02*
X78047980Y-7257916D01*
X76905123Y-6115059D02*
X76857504Y-6067440D01*
X76762266Y-6019820D01*
X76524171Y-6019820D01*
X76428933Y-6067440D01*
X76381314Y-6115059D01*
X76333695Y-6210297D01*
X76333695Y-6305535D01*
X76381314Y-6448392D01*
X76952742Y-7019820D01*
X76333695Y-7019820D01*
X75952742Y-6115059D02*
X75905123Y-6067440D01*
X75809885Y-6019820D01*
X75571790Y-6019820D01*
X75476552Y-6067440D01*
X75428933Y-6115059D01*
X75381314Y-6210297D01*
X75381314Y-6305535D01*
X75428933Y-6448392D01*
X76000361Y-7019820D01*
X75381314Y-7019820D01*
D11*
%TO.C,BT1*%
X115978700Y-20360300D02*
X117418700Y-16410300D01*
X118058700Y-31530300D02*
X115978700Y-29450300D01*
X121558700Y-31530300D02*
X118058700Y-31530300D01*
X135458700Y-31530300D02*
X137538700Y-29450300D01*
X137538700Y-20360300D02*
X136098700Y-16410300D01*
X115978700Y-29450300D02*
X115978700Y-26990300D01*
X115978700Y-20990300D02*
X115978700Y-20360300D01*
X137538700Y-29450300D02*
X137538700Y-26990300D01*
X137538700Y-20990300D02*
X137538700Y-20360300D01*
X135458700Y-31530300D02*
X131958700Y-31530300D01*
X120755346Y-15423770D02*
G75*
G03*
X117418700Y-16410300I-1306646J-1716530D01*
G01*
X136083944Y-16402131D02*
G75*
G03*
X132758700Y-15440300I-2015244J-738169D01*
G01*
%TO.C,C12*%
X78256948Y-34456200D02*
X79679452Y-34456200D01*
X78256948Y-31736200D02*
X79679452Y-31736200D01*
%TO.C,C13*%
X78399100Y-49180533D02*
X78399100Y-49473067D01*
X77379100Y-49180533D02*
X77379100Y-49473067D01*
%TO.C,C14*%
X79385700Y-49193233D02*
X79385700Y-49485767D01*
X80405700Y-49193233D02*
X80405700Y-49485767D01*
%TO.C,C25*%
X147584700Y-44799467D02*
X147584700Y-44506933D01*
X148604700Y-44799467D02*
X148604700Y-44506933D01*
%TO.C,C26*%
X145090933Y-46039500D02*
X145383467Y-46039500D01*
X145090933Y-45019500D02*
X145383467Y-45019500D01*
%TO.C,C28*%
X83584167Y-48004000D02*
X83291633Y-48004000D01*
X83584167Y-49024000D02*
X83291633Y-49024000D01*
%TO.C,C31*%
X84289952Y-55868400D02*
X82867448Y-55868400D01*
X84289952Y-53148400D02*
X82867448Y-53148400D01*
%TO.C,C33*%
X95994900Y-9346852D02*
X95994900Y-7924348D01*
X94174900Y-9346852D02*
X94174900Y-7924348D01*
%TO.C,C35*%
X100077100Y-11023652D02*
X100077100Y-9601148D01*
X97357100Y-11023652D02*
X97357100Y-9601148D01*
%TO.C,J18*%
X105262500Y-56543400D02*
X105772500Y-56193400D01*
X102752500Y-56343400D02*
X102492500Y-56343400D01*
X102952500Y-56543400D02*
X102752500Y-56343400D01*
X112352500Y-56543400D02*
X112142500Y-56343400D01*
X112142500Y-56193400D02*
X112142500Y-56343400D01*
X112142500Y-56193400D02*
X105772500Y-56193400D01*
X115242500Y-51583400D02*
X115242500Y-53383400D01*
X115242500Y-45583400D02*
X115242500Y-50283400D01*
X114212500Y-56543400D02*
X114412500Y-56343400D01*
X114212500Y-56543400D02*
X112352500Y-56543400D01*
X102952500Y-56543400D02*
X105262500Y-56543400D01*
X115242500Y-40273400D02*
X115242500Y-43883400D01*
X114792500Y-40273400D02*
X115242500Y-40273400D01*
X101272500Y-40273400D02*
X101272500Y-54283400D01*
X103192500Y-40273400D02*
X101272500Y-40273400D01*
%TO.C,L1*%
X82873500Y-41019600D02*
X82873500Y-38969600D01*
X82873500Y-38969600D02*
X89973500Y-38969600D01*
X89973500Y-38969600D02*
X89973500Y-41019600D01*
X82873500Y-44019600D02*
X82873500Y-46069600D01*
X82873500Y-46069600D02*
X89973500Y-46069600D01*
X89973500Y-46069600D02*
X89973500Y-44019600D01*
%TO.C,Q7*%
X94864000Y-45440000D02*
X94864000Y-43980000D01*
X91704000Y-45440000D02*
X91704000Y-42280000D01*
X91704000Y-45440000D02*
X92634000Y-45440000D01*
X94864000Y-45440000D02*
X93934000Y-45440000D01*
%TO.C,Q8*%
X183321100Y-47022900D02*
X181861100Y-47022900D01*
X183321100Y-50182900D02*
X180161100Y-50182900D01*
X183321100Y-50182900D02*
X183321100Y-49252900D01*
X183321100Y-47022900D02*
X183321100Y-47952900D01*
%TO.C,R13*%
X119647424Y-46534600D02*
X119137976Y-46534600D01*
X119647424Y-45489600D02*
X119137976Y-45489600D01*
%TO.C,R15*%
X93498124Y-40679900D02*
X92988676Y-40679900D01*
X93498124Y-39634900D02*
X92988676Y-39634900D01*
%TO.C,R16*%
X97141576Y-45658300D02*
X97651024Y-45658300D01*
X97141576Y-44613300D02*
X97651024Y-44613300D01*
%TO.C,R17*%
X177102676Y-49032900D02*
X177612124Y-49032900D01*
X177102676Y-50077900D02*
X177612124Y-50077900D01*
%TO.C,R18*%
X184507400Y-43851924D02*
X184507400Y-43342476D01*
X183462400Y-43851924D02*
X183462400Y-43342476D01*
%TO.C,R19*%
X77697876Y-46788600D02*
X78207324Y-46788600D01*
X77697876Y-45743600D02*
X78207324Y-45743600D01*
%TO.C,R20*%
X77738500Y-36526376D02*
X77738500Y-37035824D01*
X76693500Y-36526376D02*
X76693500Y-37035824D01*
%TO.C,R21*%
X89484924Y-51318900D02*
X88975476Y-51318900D01*
X89484924Y-52363900D02*
X88975476Y-52363900D01*
%TO.C,R22*%
X82955224Y-52363900D02*
X82445776Y-52363900D01*
X82955224Y-51318900D02*
X82445776Y-51318900D01*
%TO.C,R26*%
X95784124Y-4367000D02*
X95274676Y-4367000D01*
X95784124Y-5412000D02*
X95274676Y-5412000D01*
%TO.C,U2*%
X77498700Y-43943800D02*
X77023700Y-43943800D01*
X81243700Y-39723800D02*
X81243700Y-40198800D01*
X80768700Y-39723800D02*
X81243700Y-39723800D01*
X77023700Y-39723800D02*
X77023700Y-40198800D01*
X77498700Y-39723800D02*
X77023700Y-39723800D01*
X81243700Y-43943800D02*
X81243700Y-43468800D01*
X80768700Y-43943800D02*
X81243700Y-43943800D01*
D12*
%TO.C,U4*%
X104889300Y-7797800D02*
X108445300Y-7797800D01*
X108445300Y-7797800D02*
X108445300Y-14300200D01*
X108445300Y-14300200D02*
X104889300Y-14300200D01*
X104889300Y-14300200D02*
X104889300Y-7797800D01*
D13*
%TO.C,U10*%
X146053800Y-43892300D02*
X145903800Y-43892300D01*
X146053800Y-43882300D02*
X146053800Y-43732300D01*
X143353800Y-43882300D02*
X143353800Y-43732300D01*
X143353800Y-43882300D02*
X143503800Y-43882300D01*
X143503800Y-41182300D02*
X143353800Y-41182300D01*
X143353800Y-41182300D02*
X143353800Y-41332300D01*
X146053800Y-41332300D02*
X146053800Y-41082300D01*
D11*
%TO.C,Q14*%
X131135660Y-7627500D02*
X129675660Y-7627500D01*
X131135660Y-10787500D02*
X127975660Y-10787500D01*
X131135660Y-10787500D02*
X131135660Y-9857500D01*
X131135660Y-7627500D02*
X131135660Y-8557500D01*
%TO.C,Q16*%
X150722892Y-33519290D02*
X149690517Y-34551666D01*
X152957350Y-35753748D02*
X150722892Y-37988205D01*
X152957350Y-35753748D02*
X152299741Y-35096138D01*
X150722892Y-33519290D02*
X151380502Y-34176899D01*
%TO.C,Q17*%
X141361700Y-48229400D02*
X141361700Y-49159400D01*
X141361700Y-51389400D02*
X141361700Y-50459400D01*
X141361700Y-51389400D02*
X138201700Y-51389400D01*
X141361700Y-48229400D02*
X139901700Y-48229400D01*
%TO.C,Q18*%
X141113920Y-53538000D02*
X139653920Y-53538000D01*
X141113920Y-56698000D02*
X137953920Y-56698000D01*
X141113920Y-56698000D02*
X141113920Y-55768000D01*
X141113920Y-53538000D02*
X141113920Y-54468000D01*
%TO.C,Q19*%
X139354680Y-43802840D02*
X138424680Y-43802840D01*
X136194680Y-43802840D02*
X137124680Y-43802840D01*
X136194680Y-43802840D02*
X136194680Y-40642840D01*
X139354680Y-43802840D02*
X139354680Y-42342840D01*
%TO.C,R43*%
X126180320Y-9459684D02*
X126180320Y-8950236D01*
X127225320Y-9459684D02*
X127225320Y-8950236D01*
%TO.C,R44*%
X123809036Y-8667220D02*
X124318484Y-8667220D01*
X123809036Y-9712220D02*
X124318484Y-9712220D01*
%TO.C,R47*%
X149246185Y-37621019D02*
X148885951Y-37260785D01*
X148507259Y-38359945D02*
X148147025Y-37999711D01*
%TO.C,R49*%
X137547880Y-50092704D02*
X137547880Y-49583256D01*
X136502880Y-50092704D02*
X136502880Y-49583256D01*
%TO.C,R50*%
X143703780Y-50168264D02*
X143703780Y-49658816D01*
X144748780Y-50168264D02*
X144748780Y-49658816D01*
%TO.C,R51*%
X137250700Y-55321924D02*
X137250700Y-54812476D01*
X136205700Y-55321924D02*
X136205700Y-54812476D01*
%TO.C,R52*%
X141159136Y-51943740D02*
X141668584Y-51943740D01*
X141159136Y-52988740D02*
X141668584Y-52988740D01*
%TO.C,R53*%
X137570756Y-39902660D02*
X138080204Y-39902660D01*
X137570756Y-38857660D02*
X138080204Y-38857660D01*
%TO.C,R54*%
X135602240Y-41738456D02*
X135602240Y-42247904D01*
X134557240Y-41738456D02*
X134557240Y-42247904D01*
%TO.C,BT1*%
D10*
X127544414Y-35418871D02*
X127401557Y-35466490D01*
X127353938Y-35514109D01*
X127306319Y-35609347D01*
X127306319Y-35752204D01*
X127353938Y-35847442D01*
X127401557Y-35895061D01*
X127496795Y-35942680D01*
X127877747Y-35942680D01*
X127877747Y-34942680D01*
X127544414Y-34942680D01*
X127449176Y-34990300D01*
X127401557Y-35037919D01*
X127353938Y-35133157D01*
X127353938Y-35228395D01*
X127401557Y-35323633D01*
X127449176Y-35371252D01*
X127544414Y-35418871D01*
X127877747Y-35418871D01*
X127020604Y-34942680D02*
X126449176Y-34942680D01*
X126734890Y-35942680D02*
X126734890Y-34942680D01*
X125592033Y-35942680D02*
X126163461Y-35942680D01*
X125877747Y-35942680D02*
X125877747Y-34942680D01*
X125972985Y-35085538D01*
X126068223Y-35180776D01*
X126163461Y-35228395D01*
%TO.C,C12*%
X79611057Y-35753342D02*
X79658676Y-35800961D01*
X79801533Y-35848580D01*
X79896771Y-35848580D01*
X80039628Y-35800961D01*
X80134866Y-35705723D01*
X80182485Y-35610485D01*
X80230104Y-35420009D01*
X80230104Y-35277152D01*
X80182485Y-35086676D01*
X80134866Y-34991438D01*
X80039628Y-34896200D01*
X79896771Y-34848580D01*
X79801533Y-34848580D01*
X79658676Y-34896200D01*
X79611057Y-34943819D01*
X78658676Y-35848580D02*
X79230104Y-35848580D01*
X78944390Y-35848580D02*
X78944390Y-34848580D01*
X79039628Y-34991438D01*
X79134866Y-35086676D01*
X79230104Y-35134295D01*
X78277723Y-34943819D02*
X78230104Y-34896200D01*
X78134866Y-34848580D01*
X77896771Y-34848580D01*
X77801533Y-34896200D01*
X77753914Y-34943819D01*
X77706295Y-35039057D01*
X77706295Y-35134295D01*
X77753914Y-35277152D01*
X78325342Y-35848580D01*
X77706295Y-35848580D01*
%TO.C,C13*%
X76816242Y-48683942D02*
X76863861Y-48636323D01*
X76911480Y-48493466D01*
X76911480Y-48398228D01*
X76863861Y-48255371D01*
X76768623Y-48160133D01*
X76673385Y-48112514D01*
X76482909Y-48064895D01*
X76340052Y-48064895D01*
X76149576Y-48112514D01*
X76054338Y-48160133D01*
X75959100Y-48255371D01*
X75911480Y-48398228D01*
X75911480Y-48493466D01*
X75959100Y-48636323D01*
X76006719Y-48683942D01*
X76911480Y-49636323D02*
X76911480Y-49064895D01*
X76911480Y-49350609D02*
X75911480Y-49350609D01*
X76054338Y-49255371D01*
X76149576Y-49160133D01*
X76197195Y-49064895D01*
X75911480Y-49969657D02*
X75911480Y-50588704D01*
X76292433Y-50255371D01*
X76292433Y-50398228D01*
X76340052Y-50493466D01*
X76387671Y-50541085D01*
X76482909Y-50588704D01*
X76721004Y-50588704D01*
X76816242Y-50541085D01*
X76863861Y-50493466D01*
X76911480Y-50398228D01*
X76911480Y-50112514D01*
X76863861Y-50017276D01*
X76816242Y-49969657D01*
%TO.C,C14*%
X78822842Y-48696642D02*
X78870461Y-48649023D01*
X78918080Y-48506166D01*
X78918080Y-48410928D01*
X78870461Y-48268071D01*
X78775223Y-48172833D01*
X78679985Y-48125214D01*
X78489509Y-48077595D01*
X78346652Y-48077595D01*
X78156176Y-48125214D01*
X78060938Y-48172833D01*
X77965700Y-48268071D01*
X77918080Y-48410928D01*
X77918080Y-48506166D01*
X77965700Y-48649023D01*
X78013319Y-48696642D01*
X78918080Y-49649023D02*
X78918080Y-49077595D01*
X78918080Y-49363309D02*
X77918080Y-49363309D01*
X78060938Y-49268071D01*
X78156176Y-49172833D01*
X78203795Y-49077595D01*
X78251414Y-50506166D02*
X78918080Y-50506166D01*
X77870461Y-50268071D02*
X78584747Y-50029976D01*
X78584747Y-50649023D01*
%TO.C,C25*%
X149167557Y-45296057D02*
X149119938Y-45343676D01*
X149072319Y-45486533D01*
X149072319Y-45581771D01*
X149119938Y-45724628D01*
X149215176Y-45819866D01*
X149310414Y-45867485D01*
X149500890Y-45915104D01*
X149643747Y-45915104D01*
X149834223Y-45867485D01*
X149929461Y-45819866D01*
X150024700Y-45724628D01*
X150072319Y-45581771D01*
X150072319Y-45486533D01*
X150024700Y-45343676D01*
X149977080Y-45296057D01*
X149977080Y-44915104D02*
X150024700Y-44867485D01*
X150072319Y-44772247D01*
X150072319Y-44534152D01*
X150024700Y-44438914D01*
X149977080Y-44391295D01*
X149881842Y-44343676D01*
X149786604Y-44343676D01*
X149643747Y-44391295D01*
X149072319Y-44962723D01*
X149072319Y-44343676D01*
X150072319Y-43438914D02*
X150072319Y-43915104D01*
X149596128Y-43962723D01*
X149643747Y-43915104D01*
X149691366Y-43819866D01*
X149691366Y-43581771D01*
X149643747Y-43486533D01*
X149596128Y-43438914D01*
X149500890Y-43391295D01*
X149262795Y-43391295D01*
X149167557Y-43438914D01*
X149119938Y-43486533D01*
X149072319Y-43581771D01*
X149072319Y-43819866D01*
X149119938Y-43915104D01*
X149167557Y-43962723D01*
%TO.C,C26*%
X145880057Y-47316642D02*
X145927676Y-47364261D01*
X146070533Y-47411880D01*
X146165771Y-47411880D01*
X146308628Y-47364261D01*
X146403866Y-47269023D01*
X146451485Y-47173785D01*
X146499104Y-46983309D01*
X146499104Y-46840452D01*
X146451485Y-46649976D01*
X146403866Y-46554738D01*
X146308628Y-46459500D01*
X146165771Y-46411880D01*
X146070533Y-46411880D01*
X145927676Y-46459500D01*
X145880057Y-46507119D01*
X145499104Y-46507119D02*
X145451485Y-46459500D01*
X145356247Y-46411880D01*
X145118152Y-46411880D01*
X145022914Y-46459500D01*
X144975295Y-46507119D01*
X144927676Y-46602357D01*
X144927676Y-46697595D01*
X144975295Y-46840452D01*
X145546723Y-47411880D01*
X144927676Y-47411880D01*
X144070533Y-46411880D02*
X144261009Y-46411880D01*
X144356247Y-46459500D01*
X144403866Y-46507119D01*
X144499104Y-46649976D01*
X144546723Y-46840452D01*
X144546723Y-47221404D01*
X144499104Y-47316642D01*
X144451485Y-47364261D01*
X144356247Y-47411880D01*
X144165771Y-47411880D01*
X144070533Y-47364261D01*
X144022914Y-47316642D01*
X143975295Y-47221404D01*
X143975295Y-46983309D01*
X144022914Y-46888071D01*
X144070533Y-46840452D01*
X144165771Y-46792833D01*
X144356247Y-46792833D01*
X144451485Y-46840452D01*
X144499104Y-46888071D01*
X144546723Y-46983309D01*
%TO.C,C28*%
X84080757Y-47441142D02*
X84128376Y-47488761D01*
X84271233Y-47536380D01*
X84366471Y-47536380D01*
X84509328Y-47488761D01*
X84604566Y-47393523D01*
X84652185Y-47298285D01*
X84699804Y-47107809D01*
X84699804Y-46964952D01*
X84652185Y-46774476D01*
X84604566Y-46679238D01*
X84509328Y-46584000D01*
X84366471Y-46536380D01*
X84271233Y-46536380D01*
X84128376Y-46584000D01*
X84080757Y-46631619D01*
X83699804Y-46631619D02*
X83652185Y-46584000D01*
X83556947Y-46536380D01*
X83318852Y-46536380D01*
X83223614Y-46584000D01*
X83175995Y-46631619D01*
X83128376Y-46726857D01*
X83128376Y-46822095D01*
X83175995Y-46964952D01*
X83747423Y-47536380D01*
X83128376Y-47536380D01*
X82556947Y-46964952D02*
X82652185Y-46917333D01*
X82699804Y-46869714D01*
X82747423Y-46774476D01*
X82747423Y-46726857D01*
X82699804Y-46631619D01*
X82652185Y-46584000D01*
X82556947Y-46536380D01*
X82366471Y-46536380D01*
X82271233Y-46584000D01*
X82223614Y-46631619D01*
X82175995Y-46726857D01*
X82175995Y-46774476D01*
X82223614Y-46869714D01*
X82271233Y-46917333D01*
X82366471Y-46964952D01*
X82556947Y-46964952D01*
X82652185Y-47012571D01*
X82699804Y-47060190D01*
X82747423Y-47155428D01*
X82747423Y-47345904D01*
X82699804Y-47441142D01*
X82652185Y-47488761D01*
X82556947Y-47536380D01*
X82366471Y-47536380D01*
X82271233Y-47488761D01*
X82223614Y-47441142D01*
X82175995Y-47345904D01*
X82175995Y-47155428D01*
X82223614Y-47060190D01*
X82271233Y-47012571D01*
X82366471Y-46964952D01*
%TO.C,C31*%
X84221557Y-52565542D02*
X84269176Y-52613161D01*
X84412033Y-52660780D01*
X84507271Y-52660780D01*
X84650128Y-52613161D01*
X84745366Y-52517923D01*
X84792985Y-52422685D01*
X84840604Y-52232209D01*
X84840604Y-52089352D01*
X84792985Y-51898876D01*
X84745366Y-51803638D01*
X84650128Y-51708400D01*
X84507271Y-51660780D01*
X84412033Y-51660780D01*
X84269176Y-51708400D01*
X84221557Y-51756019D01*
X83888223Y-51660780D02*
X83269176Y-51660780D01*
X83602509Y-52041733D01*
X83459652Y-52041733D01*
X83364414Y-52089352D01*
X83316795Y-52136971D01*
X83269176Y-52232209D01*
X83269176Y-52470304D01*
X83316795Y-52565542D01*
X83364414Y-52613161D01*
X83459652Y-52660780D01*
X83745366Y-52660780D01*
X83840604Y-52613161D01*
X83888223Y-52565542D01*
X82316795Y-52660780D02*
X82888223Y-52660780D01*
X82602509Y-52660780D02*
X82602509Y-51660780D01*
X82697747Y-51803638D01*
X82792985Y-51898876D01*
X82888223Y-51946495D01*
%TO.C,C33*%
X97292042Y-7992742D02*
X97339661Y-7945123D01*
X97387280Y-7802266D01*
X97387280Y-7707028D01*
X97339661Y-7564171D01*
X97244423Y-7468933D01*
X97149185Y-7421314D01*
X96958709Y-7373695D01*
X96815852Y-7373695D01*
X96625376Y-7421314D01*
X96530138Y-7468933D01*
X96434900Y-7564171D01*
X96387280Y-7707028D01*
X96387280Y-7802266D01*
X96434900Y-7945123D01*
X96482519Y-7992742D01*
X96387280Y-8326076D02*
X96387280Y-8945123D01*
X96768233Y-8611790D01*
X96768233Y-8754647D01*
X96815852Y-8849885D01*
X96863471Y-8897504D01*
X96958709Y-8945123D01*
X97196804Y-8945123D01*
X97292042Y-8897504D01*
X97339661Y-8849885D01*
X97387280Y-8754647D01*
X97387280Y-8468933D01*
X97339661Y-8373695D01*
X97292042Y-8326076D01*
X96387280Y-9278457D02*
X96387280Y-9897504D01*
X96768233Y-9564171D01*
X96768233Y-9707028D01*
X96815852Y-9802266D01*
X96863471Y-9849885D01*
X96958709Y-9897504D01*
X97196804Y-9897504D01*
X97292042Y-9849885D01*
X97339661Y-9802266D01*
X97387280Y-9707028D01*
X97387280Y-9421314D01*
X97339661Y-9326076D01*
X97292042Y-9278457D01*
%TO.C,C35*%
X101374242Y-9669542D02*
X101421861Y-9621923D01*
X101469480Y-9479066D01*
X101469480Y-9383828D01*
X101421861Y-9240971D01*
X101326623Y-9145733D01*
X101231385Y-9098114D01*
X101040909Y-9050495D01*
X100898052Y-9050495D01*
X100707576Y-9098114D01*
X100612338Y-9145733D01*
X100517100Y-9240971D01*
X100469480Y-9383828D01*
X100469480Y-9479066D01*
X100517100Y-9621923D01*
X100564719Y-9669542D01*
X100469480Y-10002876D02*
X100469480Y-10621923D01*
X100850433Y-10288590D01*
X100850433Y-10431447D01*
X100898052Y-10526685D01*
X100945671Y-10574304D01*
X101040909Y-10621923D01*
X101279004Y-10621923D01*
X101374242Y-10574304D01*
X101421861Y-10526685D01*
X101469480Y-10431447D01*
X101469480Y-10145733D01*
X101421861Y-10050495D01*
X101374242Y-10002876D01*
X100469480Y-11526685D02*
X100469480Y-11050495D01*
X100945671Y-11002876D01*
X100898052Y-11050495D01*
X100850433Y-11145733D01*
X100850433Y-11383828D01*
X100898052Y-11479066D01*
X100945671Y-11526685D01*
X101040909Y-11574304D01*
X101279004Y-11574304D01*
X101374242Y-11526685D01*
X101421861Y-11479066D01*
X101469480Y-11383828D01*
X101469480Y-11145733D01*
X101421861Y-11050495D01*
X101374242Y-11002876D01*
%TO.C,J18*%
X109152023Y-38085780D02*
X109152023Y-38800066D01*
X109199642Y-38942923D01*
X109294880Y-39038161D01*
X109437738Y-39085780D01*
X109532976Y-39085780D01*
X108152023Y-39085780D02*
X108723452Y-39085780D01*
X108437738Y-39085780D02*
X108437738Y-38085780D01*
X108532976Y-38228638D01*
X108628214Y-38323876D01*
X108723452Y-38371495D01*
X107580595Y-38514352D02*
X107675833Y-38466733D01*
X107723452Y-38419114D01*
X107771071Y-38323876D01*
X107771071Y-38276257D01*
X107723452Y-38181019D01*
X107675833Y-38133400D01*
X107580595Y-38085780D01*
X107390119Y-38085780D01*
X107294880Y-38133400D01*
X107247261Y-38181019D01*
X107199642Y-38276257D01*
X107199642Y-38323876D01*
X107247261Y-38419114D01*
X107294880Y-38466733D01*
X107390119Y-38514352D01*
X107580595Y-38514352D01*
X107675833Y-38561971D01*
X107723452Y-38609590D01*
X107771071Y-38704828D01*
X107771071Y-38895304D01*
X107723452Y-38990542D01*
X107675833Y-39038161D01*
X107580595Y-39085780D01*
X107390119Y-39085780D01*
X107294880Y-39038161D01*
X107247261Y-38990542D01*
X107199642Y-38895304D01*
X107199642Y-38704828D01*
X107247261Y-38609590D01*
X107294880Y-38561971D01*
X107390119Y-38514352D01*
%TO.C,L1*%
X86590166Y-47421980D02*
X87066357Y-47421980D01*
X87066357Y-46421980D01*
X85733023Y-47421980D02*
X86304452Y-47421980D01*
X86018738Y-47421980D02*
X86018738Y-46421980D01*
X86113976Y-46564838D01*
X86209214Y-46660076D01*
X86304452Y-46707695D01*
%TO.C,Q7*%
X91331619Y-44584761D02*
X91284000Y-44489523D01*
X91188761Y-44394285D01*
X91045904Y-44251428D01*
X90998285Y-44156190D01*
X90998285Y-44060952D01*
X91236380Y-44108571D02*
X91188761Y-44013333D01*
X91093523Y-43918095D01*
X90903047Y-43870476D01*
X90569714Y-43870476D01*
X90379238Y-43918095D01*
X90284000Y-44013333D01*
X90236380Y-44108571D01*
X90236380Y-44299047D01*
X90284000Y-44394285D01*
X90379238Y-44489523D01*
X90569714Y-44537142D01*
X90903047Y-44537142D01*
X91093523Y-44489523D01*
X91188761Y-44394285D01*
X91236380Y-44299047D01*
X91236380Y-44108571D01*
X90236380Y-44870476D02*
X90236380Y-45537142D01*
X91236380Y-45108571D01*
%TO.C,Q8*%
X182656338Y-51650519D02*
X182751576Y-51602900D01*
X182846814Y-51507661D01*
X182989671Y-51364804D01*
X183084909Y-51317185D01*
X183180147Y-51317185D01*
X183132528Y-51555280D02*
X183227766Y-51507661D01*
X183323004Y-51412423D01*
X183370623Y-51221947D01*
X183370623Y-50888614D01*
X183323004Y-50698138D01*
X183227766Y-50602900D01*
X183132528Y-50555280D01*
X182942052Y-50555280D01*
X182846814Y-50602900D01*
X182751576Y-50698138D01*
X182703957Y-50888614D01*
X182703957Y-51221947D01*
X182751576Y-51412423D01*
X182846814Y-51507661D01*
X182942052Y-51555280D01*
X183132528Y-51555280D01*
X182132528Y-50983852D02*
X182227766Y-50936233D01*
X182275385Y-50888614D01*
X182323004Y-50793376D01*
X182323004Y-50745757D01*
X182275385Y-50650519D01*
X182227766Y-50602900D01*
X182132528Y-50555280D01*
X181942052Y-50555280D01*
X181846814Y-50602900D01*
X181799195Y-50650519D01*
X181751576Y-50745757D01*
X181751576Y-50793376D01*
X181799195Y-50888614D01*
X181846814Y-50936233D01*
X181942052Y-50983852D01*
X182132528Y-50983852D01*
X182227766Y-51031471D01*
X182275385Y-51079090D01*
X182323004Y-51174328D01*
X182323004Y-51364804D01*
X182275385Y-51460042D01*
X182227766Y-51507661D01*
X182132528Y-51555280D01*
X181942052Y-51555280D01*
X181846814Y-51507661D01*
X181799195Y-51460042D01*
X181751576Y-51364804D01*
X181751576Y-51174328D01*
X181799195Y-51079090D01*
X181846814Y-51031471D01*
X181942052Y-50983852D01*
%TO.C,R13*%
X120035557Y-45034480D02*
X120368890Y-44558290D01*
X120606985Y-45034480D02*
X120606985Y-44034480D01*
X120226033Y-44034480D01*
X120130795Y-44082100D01*
X120083176Y-44129719D01*
X120035557Y-44224957D01*
X120035557Y-44367814D01*
X120083176Y-44463052D01*
X120130795Y-44510671D01*
X120226033Y-44558290D01*
X120606985Y-44558290D01*
X119083176Y-45034480D02*
X119654604Y-45034480D01*
X119368890Y-45034480D02*
X119368890Y-44034480D01*
X119464128Y-44177338D01*
X119559366Y-44272576D01*
X119654604Y-44320195D01*
X118749842Y-44034480D02*
X118130795Y-44034480D01*
X118464128Y-44415433D01*
X118321271Y-44415433D01*
X118226033Y-44463052D01*
X118178414Y-44510671D01*
X118130795Y-44605909D01*
X118130795Y-44844004D01*
X118178414Y-44939242D01*
X118226033Y-44986861D01*
X118321271Y-45034480D01*
X118606985Y-45034480D01*
X118702223Y-44986861D01*
X118749842Y-44939242D01*
%TO.C,R15*%
X93886257Y-39179780D02*
X94219590Y-38703590D01*
X94457685Y-39179780D02*
X94457685Y-38179780D01*
X94076733Y-38179780D01*
X93981495Y-38227400D01*
X93933876Y-38275019D01*
X93886257Y-38370257D01*
X93886257Y-38513114D01*
X93933876Y-38608352D01*
X93981495Y-38655971D01*
X94076733Y-38703590D01*
X94457685Y-38703590D01*
X92933876Y-39179780D02*
X93505304Y-39179780D01*
X93219590Y-39179780D02*
X93219590Y-38179780D01*
X93314828Y-38322638D01*
X93410066Y-38417876D01*
X93505304Y-38465495D01*
X92029114Y-38179780D02*
X92505304Y-38179780D01*
X92552923Y-38655971D01*
X92505304Y-38608352D01*
X92410066Y-38560733D01*
X92171971Y-38560733D01*
X92076733Y-38608352D01*
X92029114Y-38655971D01*
X91981495Y-38751209D01*
X91981495Y-38989304D01*
X92029114Y-39084542D01*
X92076733Y-39132161D01*
X92171971Y-39179780D01*
X92410066Y-39179780D01*
X92505304Y-39132161D01*
X92552923Y-39084542D01*
%TO.C,R16*%
X98039157Y-47018180D02*
X98372490Y-46541990D01*
X98610585Y-47018180D02*
X98610585Y-46018180D01*
X98229633Y-46018180D01*
X98134395Y-46065800D01*
X98086776Y-46113419D01*
X98039157Y-46208657D01*
X98039157Y-46351514D01*
X98086776Y-46446752D01*
X98134395Y-46494371D01*
X98229633Y-46541990D01*
X98610585Y-46541990D01*
X97086776Y-47018180D02*
X97658204Y-47018180D01*
X97372490Y-47018180D02*
X97372490Y-46018180D01*
X97467728Y-46161038D01*
X97562966Y-46256276D01*
X97658204Y-46303895D01*
X96229633Y-46018180D02*
X96420109Y-46018180D01*
X96515347Y-46065800D01*
X96562966Y-46113419D01*
X96658204Y-46256276D01*
X96705823Y-46446752D01*
X96705823Y-46827704D01*
X96658204Y-46922942D01*
X96610585Y-46970561D01*
X96515347Y-47018180D01*
X96324871Y-47018180D01*
X96229633Y-46970561D01*
X96182014Y-46922942D01*
X96134395Y-46827704D01*
X96134395Y-46589609D01*
X96182014Y-46494371D01*
X96229633Y-46446752D01*
X96324871Y-46399133D01*
X96515347Y-46399133D01*
X96610585Y-46446752D01*
X96658204Y-46494371D01*
X96705823Y-46589609D01*
%TO.C,R17*%
X178000257Y-51437780D02*
X178333590Y-50961590D01*
X178571685Y-51437780D02*
X178571685Y-50437780D01*
X178190733Y-50437780D01*
X178095495Y-50485400D01*
X178047876Y-50533019D01*
X178000257Y-50628257D01*
X178000257Y-50771114D01*
X178047876Y-50866352D01*
X178095495Y-50913971D01*
X178190733Y-50961590D01*
X178571685Y-50961590D01*
X177047876Y-51437780D02*
X177619304Y-51437780D01*
X177333590Y-51437780D02*
X177333590Y-50437780D01*
X177428828Y-50580638D01*
X177524066Y-50675876D01*
X177619304Y-50723495D01*
X176714542Y-50437780D02*
X176047876Y-50437780D01*
X176476447Y-51437780D01*
%TO.C,R18*%
X185867280Y-42954342D02*
X185391090Y-42621009D01*
X185867280Y-42382914D02*
X184867280Y-42382914D01*
X184867280Y-42763866D01*
X184914900Y-42859104D01*
X184962519Y-42906723D01*
X185057757Y-42954342D01*
X185200614Y-42954342D01*
X185295852Y-42906723D01*
X185343471Y-42859104D01*
X185391090Y-42763866D01*
X185391090Y-42382914D01*
X185867280Y-43906723D02*
X185867280Y-43335295D01*
X185867280Y-43621009D02*
X184867280Y-43621009D01*
X185010138Y-43525771D01*
X185105376Y-43430533D01*
X185152995Y-43335295D01*
X185295852Y-44478152D02*
X185248233Y-44382914D01*
X185200614Y-44335295D01*
X185105376Y-44287676D01*
X185057757Y-44287676D01*
X184962519Y-44335295D01*
X184914900Y-44382914D01*
X184867280Y-44478152D01*
X184867280Y-44668628D01*
X184914900Y-44763866D01*
X184962519Y-44811485D01*
X185057757Y-44859104D01*
X185105376Y-44859104D01*
X185200614Y-44811485D01*
X185248233Y-44763866D01*
X185295852Y-44668628D01*
X185295852Y-44478152D01*
X185343471Y-44382914D01*
X185391090Y-44335295D01*
X185486328Y-44287676D01*
X185676804Y-44287676D01*
X185772042Y-44335295D01*
X185819661Y-44382914D01*
X185867280Y-44478152D01*
X185867280Y-44668628D01*
X185819661Y-44763866D01*
X185772042Y-44811485D01*
X185676804Y-44859104D01*
X185486328Y-44859104D01*
X185391090Y-44811485D01*
X185343471Y-44763866D01*
X185295852Y-44668628D01*
%TO.C,R19*%
X78595457Y-48148480D02*
X78928790Y-47672290D01*
X79166885Y-48148480D02*
X79166885Y-47148480D01*
X78785933Y-47148480D01*
X78690695Y-47196100D01*
X78643076Y-47243719D01*
X78595457Y-47338957D01*
X78595457Y-47481814D01*
X78643076Y-47577052D01*
X78690695Y-47624671D01*
X78785933Y-47672290D01*
X79166885Y-47672290D01*
X77643076Y-48148480D02*
X78214504Y-48148480D01*
X77928790Y-48148480D02*
X77928790Y-47148480D01*
X78024028Y-47291338D01*
X78119266Y-47386576D01*
X78214504Y-47434195D01*
X77166885Y-48148480D02*
X76976409Y-48148480D01*
X76881171Y-48100861D01*
X76833552Y-48053242D01*
X76738314Y-47910385D01*
X76690695Y-47719909D01*
X76690695Y-47338957D01*
X76738314Y-47243719D01*
X76785933Y-47196100D01*
X76881171Y-47148480D01*
X77071647Y-47148480D01*
X77166885Y-47196100D01*
X77214504Y-47243719D01*
X77262123Y-47338957D01*
X77262123Y-47577052D01*
X77214504Y-47672290D01*
X77166885Y-47719909D01*
X77071647Y-47767528D01*
X76881171Y-47767528D01*
X76785933Y-47719909D01*
X76738314Y-47672290D01*
X76690695Y-47577052D01*
%TO.C,R20*%
X76238380Y-36138242D02*
X75762190Y-35804909D01*
X76238380Y-35566814D02*
X75238380Y-35566814D01*
X75238380Y-35947766D01*
X75286000Y-36043004D01*
X75333619Y-36090623D01*
X75428857Y-36138242D01*
X75571714Y-36138242D01*
X75666952Y-36090623D01*
X75714571Y-36043004D01*
X75762190Y-35947766D01*
X75762190Y-35566814D01*
X75333619Y-36519195D02*
X75286000Y-36566814D01*
X75238380Y-36662052D01*
X75238380Y-36900147D01*
X75286000Y-36995385D01*
X75333619Y-37043004D01*
X75428857Y-37090623D01*
X75524095Y-37090623D01*
X75666952Y-37043004D01*
X76238380Y-36471576D01*
X76238380Y-37090623D01*
X75238380Y-37709671D02*
X75238380Y-37804909D01*
X75286000Y-37900147D01*
X75333619Y-37947766D01*
X75428857Y-37995385D01*
X75619333Y-38043004D01*
X75857428Y-38043004D01*
X76047904Y-37995385D01*
X76143142Y-37947766D01*
X76190761Y-37900147D01*
X76238380Y-37804909D01*
X76238380Y-37709671D01*
X76190761Y-37614433D01*
X76143142Y-37566814D01*
X76047904Y-37519195D01*
X75857428Y-37471576D01*
X75619333Y-37471576D01*
X75428857Y-37519195D01*
X75333619Y-37566814D01*
X75286000Y-37614433D01*
X75238380Y-37709671D01*
%TO.C,R21*%
X89873057Y-50863780D02*
X90206390Y-50387590D01*
X90444485Y-50863780D02*
X90444485Y-49863780D01*
X90063533Y-49863780D01*
X89968295Y-49911400D01*
X89920676Y-49959019D01*
X89873057Y-50054257D01*
X89873057Y-50197114D01*
X89920676Y-50292352D01*
X89968295Y-50339971D01*
X90063533Y-50387590D01*
X90444485Y-50387590D01*
X89492104Y-49959019D02*
X89444485Y-49911400D01*
X89349247Y-49863780D01*
X89111152Y-49863780D01*
X89015914Y-49911400D01*
X88968295Y-49959019D01*
X88920676Y-50054257D01*
X88920676Y-50149495D01*
X88968295Y-50292352D01*
X89539723Y-50863780D01*
X88920676Y-50863780D01*
X87968295Y-50863780D02*
X88539723Y-50863780D01*
X88254009Y-50863780D02*
X88254009Y-49863780D01*
X88349247Y-50006638D01*
X88444485Y-50101876D01*
X88539723Y-50149495D01*
%TO.C,R22*%
X83343357Y-50863780D02*
X83676690Y-50387590D01*
X83914785Y-50863780D02*
X83914785Y-49863780D01*
X83533833Y-49863780D01*
X83438595Y-49911400D01*
X83390976Y-49959019D01*
X83343357Y-50054257D01*
X83343357Y-50197114D01*
X83390976Y-50292352D01*
X83438595Y-50339971D01*
X83533833Y-50387590D01*
X83914785Y-50387590D01*
X82962404Y-49959019D02*
X82914785Y-49911400D01*
X82819547Y-49863780D01*
X82581452Y-49863780D01*
X82486214Y-49911400D01*
X82438595Y-49959019D01*
X82390976Y-50054257D01*
X82390976Y-50149495D01*
X82438595Y-50292352D01*
X83010023Y-50863780D01*
X82390976Y-50863780D01*
X82010023Y-49959019D02*
X81962404Y-49911400D01*
X81867166Y-49863780D01*
X81629071Y-49863780D01*
X81533833Y-49911400D01*
X81486214Y-49959019D01*
X81438595Y-50054257D01*
X81438595Y-50149495D01*
X81486214Y-50292352D01*
X82057642Y-50863780D01*
X81438595Y-50863780D01*
%TO.C,R26*%
X96172257Y-3911880D02*
X96505590Y-3435690D01*
X96743685Y-3911880D02*
X96743685Y-2911880D01*
X96362733Y-2911880D01*
X96267495Y-2959500D01*
X96219876Y-3007119D01*
X96172257Y-3102357D01*
X96172257Y-3245214D01*
X96219876Y-3340452D01*
X96267495Y-3388071D01*
X96362733Y-3435690D01*
X96743685Y-3435690D01*
X95791304Y-3007119D02*
X95743685Y-2959500D01*
X95648447Y-2911880D01*
X95410352Y-2911880D01*
X95315114Y-2959500D01*
X95267495Y-3007119D01*
X95219876Y-3102357D01*
X95219876Y-3197595D01*
X95267495Y-3340452D01*
X95838923Y-3911880D01*
X95219876Y-3911880D01*
X94362733Y-2911880D02*
X94553209Y-2911880D01*
X94648447Y-2959500D01*
X94696066Y-3007119D01*
X94791304Y-3149976D01*
X94838923Y-3340452D01*
X94838923Y-3721404D01*
X94791304Y-3816642D01*
X94743685Y-3864261D01*
X94648447Y-3911880D01*
X94457971Y-3911880D01*
X94362733Y-3864261D01*
X94315114Y-3816642D01*
X94267495Y-3721404D01*
X94267495Y-3483309D01*
X94315114Y-3388071D01*
X94362733Y-3340452D01*
X94457971Y-3292833D01*
X94648447Y-3292833D01*
X94743685Y-3340452D01*
X94791304Y-3388071D01*
X94838923Y-3483309D01*
%TO.C,U2*%
X79895604Y-44606180D02*
X79895604Y-45415704D01*
X79847985Y-45510942D01*
X79800366Y-45558561D01*
X79705128Y-45606180D01*
X79514652Y-45606180D01*
X79419414Y-45558561D01*
X79371795Y-45510942D01*
X79324176Y-45415704D01*
X79324176Y-44606180D01*
X78895604Y-44701419D02*
X78847985Y-44653800D01*
X78752747Y-44606180D01*
X78514652Y-44606180D01*
X78419414Y-44653800D01*
X78371795Y-44701419D01*
X78324176Y-44796657D01*
X78324176Y-44891895D01*
X78371795Y-45034752D01*
X78943223Y-45606180D01*
X78324176Y-45606180D01*
%TO.C,U4*%
D14*
X108402868Y-14882930D02*
X108402868Y-16213194D01*
X108324617Y-16369696D01*
X108246367Y-16447947D01*
X108089865Y-16526198D01*
X107776861Y-16526198D01*
X107620360Y-16447947D01*
X107542109Y-16369696D01*
X107463858Y-16213194D01*
X107463858Y-14882930D01*
X105977092Y-15430686D02*
X105977092Y-16526198D01*
X106368346Y-14804679D02*
X106759600Y-15978442D01*
X105742339Y-15978442D01*
%TO.C,U10*%
D10*
X145926895Y-39519680D02*
X145926895Y-40329204D01*
X145879276Y-40424442D01*
X145831657Y-40472061D01*
X145736419Y-40519680D01*
X145545942Y-40519680D01*
X145450704Y-40472061D01*
X145403085Y-40424442D01*
X145355466Y-40329204D01*
X145355466Y-39519680D01*
X144355466Y-40519680D02*
X144926895Y-40519680D01*
X144641180Y-40519680D02*
X144641180Y-39519680D01*
X144736419Y-39662538D01*
X144831657Y-39757776D01*
X144926895Y-39805395D01*
X143736419Y-39519680D02*
X143641180Y-39519680D01*
X143545942Y-39567300D01*
X143498323Y-39614919D01*
X143450704Y-39710157D01*
X143403085Y-39900633D01*
X143403085Y-40138728D01*
X143450704Y-40329204D01*
X143498323Y-40424442D01*
X143545942Y-40472061D01*
X143641180Y-40519680D01*
X143736419Y-40519680D01*
X143831657Y-40472061D01*
X143879276Y-40424442D01*
X143926895Y-40329204D01*
X143974514Y-40138728D01*
X143974514Y-39900633D01*
X143926895Y-39710157D01*
X143879276Y-39614919D01*
X143831657Y-39567300D01*
X143736419Y-39519680D01*
%TO.C,Q14*%
X130947088Y-12255119D02*
X131042326Y-12207500D01*
X131137564Y-12112261D01*
X131280421Y-11969404D01*
X131375660Y-11921785D01*
X131470898Y-11921785D01*
X131423279Y-12159880D02*
X131518517Y-12112261D01*
X131613755Y-12017023D01*
X131661374Y-11826547D01*
X131661374Y-11493214D01*
X131613755Y-11302738D01*
X131518517Y-11207500D01*
X131423279Y-11159880D01*
X131232802Y-11159880D01*
X131137564Y-11207500D01*
X131042326Y-11302738D01*
X130994707Y-11493214D01*
X130994707Y-11826547D01*
X131042326Y-12017023D01*
X131137564Y-12112261D01*
X131232802Y-12159880D01*
X131423279Y-12159880D01*
X130042326Y-12159880D02*
X130613755Y-12159880D01*
X130328040Y-12159880D02*
X130328040Y-11159880D01*
X130423279Y-11302738D01*
X130518517Y-11397976D01*
X130613755Y-11445595D01*
X129185183Y-11493214D02*
X129185183Y-12159880D01*
X129423279Y-11112261D02*
X129661374Y-11826547D01*
X129042326Y-11826547D01*
%TO.C,Q16*%
X153861773Y-36924851D02*
X153895444Y-36823835D01*
X153895444Y-36689148D01*
X153895444Y-36487118D01*
X153929116Y-36386103D01*
X153996460Y-36318759D01*
X154131147Y-36520790D02*
X154164818Y-36419774D01*
X154164818Y-36285087D01*
X154063803Y-36116729D01*
X153828101Y-35881026D01*
X153659742Y-35780011D01*
X153525055Y-35780011D01*
X153424040Y-35813683D01*
X153289353Y-35948370D01*
X153255681Y-36049385D01*
X153255681Y-36184072D01*
X153356696Y-36352431D01*
X153592399Y-36588133D01*
X153760757Y-36689148D01*
X153895444Y-36689148D01*
X153996460Y-36655477D01*
X154131147Y-36520790D01*
X153154666Y-37497270D02*
X153558727Y-37093209D01*
X153356696Y-37295240D02*
X152649590Y-36588133D01*
X152817948Y-36621805D01*
X152952635Y-36621805D01*
X153053651Y-36588133D01*
X151841468Y-37396255D02*
X151976155Y-37261568D01*
X152077170Y-37227896D01*
X152144513Y-37227896D01*
X152312872Y-37261568D01*
X152481231Y-37362583D01*
X152750605Y-37631957D01*
X152784277Y-37732973D01*
X152784277Y-37800316D01*
X152750605Y-37901331D01*
X152615918Y-38036018D01*
X152514903Y-38069690D01*
X152447559Y-38069690D01*
X152346544Y-38036018D01*
X152178185Y-37867660D01*
X152144513Y-37766644D01*
X152144513Y-37699301D01*
X152178185Y-37598286D01*
X152312872Y-37463599D01*
X152413887Y-37429927D01*
X152481231Y-37429927D01*
X152582246Y-37463599D01*
%TO.C,Q17*%
X141173128Y-52857019D02*
X141268366Y-52809400D01*
X141363604Y-52714161D01*
X141506461Y-52571304D01*
X141601700Y-52523685D01*
X141696938Y-52523685D01*
X141649319Y-52761780D02*
X141744557Y-52714161D01*
X141839795Y-52618923D01*
X141887414Y-52428447D01*
X141887414Y-52095114D01*
X141839795Y-51904638D01*
X141744557Y-51809400D01*
X141649319Y-51761780D01*
X141458842Y-51761780D01*
X141363604Y-51809400D01*
X141268366Y-51904638D01*
X141220747Y-52095114D01*
X141220747Y-52428447D01*
X141268366Y-52618923D01*
X141363604Y-52714161D01*
X141458842Y-52761780D01*
X141649319Y-52761780D01*
X140268366Y-52761780D02*
X140839795Y-52761780D01*
X140554080Y-52761780D02*
X140554080Y-51761780D01*
X140649319Y-51904638D01*
X140744557Y-51999876D01*
X140839795Y-52047495D01*
X139935033Y-51761780D02*
X139268366Y-51761780D01*
X139696938Y-52761780D01*
%TO.C,Q18*%
X140925348Y-58165619D02*
X141020586Y-58118000D01*
X141115824Y-58022761D01*
X141258681Y-57879904D01*
X141353920Y-57832285D01*
X141449158Y-57832285D01*
X141401539Y-58070380D02*
X141496777Y-58022761D01*
X141592015Y-57927523D01*
X141639634Y-57737047D01*
X141639634Y-57403714D01*
X141592015Y-57213238D01*
X141496777Y-57118000D01*
X141401539Y-57070380D01*
X141211062Y-57070380D01*
X141115824Y-57118000D01*
X141020586Y-57213238D01*
X140972967Y-57403714D01*
X140972967Y-57737047D01*
X141020586Y-57927523D01*
X141115824Y-58022761D01*
X141211062Y-58070380D01*
X141401539Y-58070380D01*
X140020586Y-58070380D02*
X140592015Y-58070380D01*
X140306300Y-58070380D02*
X140306300Y-57070380D01*
X140401539Y-57213238D01*
X140496777Y-57308476D01*
X140592015Y-57356095D01*
X139449158Y-57498952D02*
X139544396Y-57451333D01*
X139592015Y-57403714D01*
X139639634Y-57308476D01*
X139639634Y-57260857D01*
X139592015Y-57165619D01*
X139544396Y-57118000D01*
X139449158Y-57070380D01*
X139258681Y-57070380D01*
X139163443Y-57118000D01*
X139115824Y-57165619D01*
X139068205Y-57260857D01*
X139068205Y-57308476D01*
X139115824Y-57403714D01*
X139163443Y-57451333D01*
X139258681Y-57498952D01*
X139449158Y-57498952D01*
X139544396Y-57546571D01*
X139592015Y-57594190D01*
X139639634Y-57689428D01*
X139639634Y-57879904D01*
X139592015Y-57975142D01*
X139544396Y-58022761D01*
X139449158Y-58070380D01*
X139258681Y-58070380D01*
X139163443Y-58022761D01*
X139115824Y-57975142D01*
X139068205Y-57879904D01*
X139068205Y-57689428D01*
X139115824Y-57594190D01*
X139163443Y-57546571D01*
X139258681Y-57498952D01*
%TO.C,Q19*%
X135822299Y-42471411D02*
X135774680Y-42376173D01*
X135679441Y-42280935D01*
X135536584Y-42138078D01*
X135488965Y-42042840D01*
X135488965Y-41947601D01*
X135727060Y-41995220D02*
X135679441Y-41899982D01*
X135584203Y-41804744D01*
X135393727Y-41757125D01*
X135060394Y-41757125D01*
X134869918Y-41804744D01*
X134774680Y-41899982D01*
X134727060Y-41995220D01*
X134727060Y-42185697D01*
X134774680Y-42280935D01*
X134869918Y-42376173D01*
X135060394Y-42423792D01*
X135393727Y-42423792D01*
X135584203Y-42376173D01*
X135679441Y-42280935D01*
X135727060Y-42185697D01*
X135727060Y-41995220D01*
X135727060Y-43376173D02*
X135727060Y-42804744D01*
X135727060Y-43090459D02*
X134727060Y-43090459D01*
X134869918Y-42995220D01*
X134965156Y-42899982D01*
X135012775Y-42804744D01*
X135727060Y-43852363D02*
X135727060Y-44042840D01*
X135679441Y-44138078D01*
X135631822Y-44185697D01*
X135488965Y-44280935D01*
X135298489Y-44328554D01*
X134917537Y-44328554D01*
X134822299Y-44280935D01*
X134774680Y-44233316D01*
X134727060Y-44138078D01*
X134727060Y-43947601D01*
X134774680Y-43852363D01*
X134822299Y-43804744D01*
X134917537Y-43757125D01*
X135155632Y-43757125D01*
X135250870Y-43804744D01*
X135298489Y-43852363D01*
X135346108Y-43947601D01*
X135346108Y-44138078D01*
X135298489Y-44233316D01*
X135250870Y-44280935D01*
X135155632Y-44328554D01*
%TO.C,R43*%
X128585200Y-8562102D02*
X128109010Y-8228769D01*
X128585200Y-7990674D02*
X127585200Y-7990674D01*
X127585200Y-8371626D01*
X127632820Y-8466864D01*
X127680439Y-8514483D01*
X127775677Y-8562102D01*
X127918534Y-8562102D01*
X128013772Y-8514483D01*
X128061391Y-8466864D01*
X128109010Y-8371626D01*
X128109010Y-7990674D01*
X127918534Y-9419245D02*
X128585200Y-9419245D01*
X127537581Y-9181150D02*
X128251867Y-8943055D01*
X128251867Y-9562102D01*
X127585200Y-9847817D02*
X127585200Y-10466864D01*
X127966153Y-10133531D01*
X127966153Y-10276388D01*
X128013772Y-10371626D01*
X128061391Y-10419245D01*
X128156629Y-10466864D01*
X128394724Y-10466864D01*
X128489962Y-10419245D01*
X128537581Y-10371626D01*
X128585200Y-10276388D01*
X128585200Y-9990674D01*
X128537581Y-9895436D01*
X128489962Y-9847817D01*
%TO.C,R44*%
X124706617Y-11072100D02*
X125039950Y-10595910D01*
X125278045Y-11072100D02*
X125278045Y-10072100D01*
X124897093Y-10072100D01*
X124801855Y-10119720D01*
X124754236Y-10167339D01*
X124706617Y-10262577D01*
X124706617Y-10405434D01*
X124754236Y-10500672D01*
X124801855Y-10548291D01*
X124897093Y-10595910D01*
X125278045Y-10595910D01*
X123849474Y-10405434D02*
X123849474Y-11072100D01*
X124087569Y-10024481D02*
X124325664Y-10738767D01*
X123706617Y-10738767D01*
X122897093Y-10405434D02*
X122897093Y-11072100D01*
X123135188Y-10024481D02*
X123373283Y-10738767D01*
X122754236Y-10738767D01*
%TO.C,R47*%
X149842455Y-37573652D02*
X150414874Y-37472637D01*
X150246516Y-37977713D02*
X150953622Y-37270606D01*
X150684248Y-37001232D01*
X150583233Y-36967560D01*
X150515890Y-36967560D01*
X150414874Y-37001232D01*
X150313859Y-37102247D01*
X150280187Y-37203263D01*
X150280187Y-37270606D01*
X150313859Y-37371621D01*
X150583233Y-37640995D01*
X149707768Y-36496156D02*
X149236363Y-36967560D01*
X150145500Y-36395140D02*
X149808783Y-37068576D01*
X149371050Y-36630843D01*
X149640424Y-35957408D02*
X149169019Y-35486003D01*
X148764958Y-36496156D01*
%TO.C,R49*%
X138907760Y-49195122D02*
X138431570Y-48861789D01*
X138907760Y-48623694D02*
X137907760Y-48623694D01*
X137907760Y-49004646D01*
X137955380Y-49099884D01*
X138002999Y-49147503D01*
X138098237Y-49195122D01*
X138241094Y-49195122D01*
X138336332Y-49147503D01*
X138383951Y-49099884D01*
X138431570Y-49004646D01*
X138431570Y-48623694D01*
X138241094Y-50052265D02*
X138907760Y-50052265D01*
X137860141Y-49814170D02*
X138574427Y-49576075D01*
X138574427Y-50195122D01*
X138907760Y-50623694D02*
X138907760Y-50814170D01*
X138860141Y-50909408D01*
X138812522Y-50957027D01*
X138669665Y-51052265D01*
X138479189Y-51099884D01*
X138098237Y-51099884D01*
X138002999Y-51052265D01*
X137955380Y-51004646D01*
X137907760Y-50909408D01*
X137907760Y-50718932D01*
X137955380Y-50623694D01*
X138002999Y-50576075D01*
X138098237Y-50528456D01*
X138336332Y-50528456D01*
X138431570Y-50576075D01*
X138479189Y-50623694D01*
X138526808Y-50718932D01*
X138526808Y-50909408D01*
X138479189Y-51004646D01*
X138431570Y-51052265D01*
X138336332Y-51099884D01*
%TO.C,R50*%
X146108660Y-49270682D02*
X145632470Y-48937349D01*
X146108660Y-48699254D02*
X145108660Y-48699254D01*
X145108660Y-49080206D01*
X145156280Y-49175444D01*
X145203899Y-49223063D01*
X145299137Y-49270682D01*
X145441994Y-49270682D01*
X145537232Y-49223063D01*
X145584851Y-49175444D01*
X145632470Y-49080206D01*
X145632470Y-48699254D01*
X145108660Y-50175444D02*
X145108660Y-49699254D01*
X145584851Y-49651635D01*
X145537232Y-49699254D01*
X145489613Y-49794492D01*
X145489613Y-50032587D01*
X145537232Y-50127825D01*
X145584851Y-50175444D01*
X145680089Y-50223063D01*
X145918184Y-50223063D01*
X146013422Y-50175444D01*
X146061041Y-50127825D01*
X146108660Y-50032587D01*
X146108660Y-49794492D01*
X146061041Y-49699254D01*
X146013422Y-49651635D01*
X145108660Y-50842111D02*
X145108660Y-50937349D01*
X145156280Y-51032587D01*
X145203899Y-51080206D01*
X145299137Y-51127825D01*
X145489613Y-51175444D01*
X145727708Y-51175444D01*
X145918184Y-51127825D01*
X146013422Y-51080206D01*
X146061041Y-51032587D01*
X146108660Y-50937349D01*
X146108660Y-50842111D01*
X146061041Y-50746873D01*
X146013422Y-50699254D01*
X145918184Y-50651635D01*
X145727708Y-50604016D01*
X145489613Y-50604016D01*
X145299137Y-50651635D01*
X145203899Y-50699254D01*
X145156280Y-50746873D01*
X145108660Y-50842111D01*
%TO.C,R51*%
X138610580Y-54424342D02*
X138134390Y-54091009D01*
X138610580Y-53852914D02*
X137610580Y-53852914D01*
X137610580Y-54233866D01*
X137658200Y-54329104D01*
X137705819Y-54376723D01*
X137801057Y-54424342D01*
X137943914Y-54424342D01*
X138039152Y-54376723D01*
X138086771Y-54329104D01*
X138134390Y-54233866D01*
X138134390Y-53852914D01*
X137610580Y-55329104D02*
X137610580Y-54852914D01*
X138086771Y-54805295D01*
X138039152Y-54852914D01*
X137991533Y-54948152D01*
X137991533Y-55186247D01*
X138039152Y-55281485D01*
X138086771Y-55329104D01*
X138182009Y-55376723D01*
X138420104Y-55376723D01*
X138515342Y-55329104D01*
X138562961Y-55281485D01*
X138610580Y-55186247D01*
X138610580Y-54948152D01*
X138562961Y-54852914D01*
X138515342Y-54805295D01*
X138610580Y-56329104D02*
X138610580Y-55757676D01*
X138610580Y-56043390D02*
X137610580Y-56043390D01*
X137753438Y-55948152D01*
X137848676Y-55852914D01*
X137896295Y-55757676D01*
%TO.C,R52*%
X142056717Y-54348620D02*
X142390050Y-53872430D01*
X142628145Y-54348620D02*
X142628145Y-53348620D01*
X142247193Y-53348620D01*
X142151955Y-53396240D01*
X142104336Y-53443859D01*
X142056717Y-53539097D01*
X142056717Y-53681954D01*
X142104336Y-53777192D01*
X142151955Y-53824811D01*
X142247193Y-53872430D01*
X142628145Y-53872430D01*
X141151955Y-53348620D02*
X141628145Y-53348620D01*
X141675764Y-53824811D01*
X141628145Y-53777192D01*
X141532907Y-53729573D01*
X141294812Y-53729573D01*
X141199574Y-53777192D01*
X141151955Y-53824811D01*
X141104336Y-53920049D01*
X141104336Y-54158144D01*
X141151955Y-54253382D01*
X141199574Y-54301001D01*
X141294812Y-54348620D01*
X141532907Y-54348620D01*
X141628145Y-54301001D01*
X141675764Y-54253382D01*
X140723383Y-53443859D02*
X140675764Y-53396240D01*
X140580526Y-53348620D01*
X140342431Y-53348620D01*
X140247193Y-53396240D01*
X140199574Y-53443859D01*
X140151955Y-53539097D01*
X140151955Y-53634335D01*
X140199574Y-53777192D01*
X140771002Y-54348620D01*
X140151955Y-54348620D01*
%TO.C,R53*%
X138468337Y-41262540D02*
X138801670Y-40786350D01*
X139039765Y-41262540D02*
X139039765Y-40262540D01*
X138658813Y-40262540D01*
X138563575Y-40310160D01*
X138515956Y-40357779D01*
X138468337Y-40453017D01*
X138468337Y-40595874D01*
X138515956Y-40691112D01*
X138563575Y-40738731D01*
X138658813Y-40786350D01*
X139039765Y-40786350D01*
X137563575Y-40262540D02*
X138039765Y-40262540D01*
X138087384Y-40738731D01*
X138039765Y-40691112D01*
X137944527Y-40643493D01*
X137706432Y-40643493D01*
X137611194Y-40691112D01*
X137563575Y-40738731D01*
X137515956Y-40833969D01*
X137515956Y-41072064D01*
X137563575Y-41167302D01*
X137611194Y-41214921D01*
X137706432Y-41262540D01*
X137944527Y-41262540D01*
X138039765Y-41214921D01*
X138087384Y-41167302D01*
X137182622Y-40262540D02*
X136563575Y-40262540D01*
X136896908Y-40643493D01*
X136754051Y-40643493D01*
X136658813Y-40691112D01*
X136611194Y-40738731D01*
X136563575Y-40833969D01*
X136563575Y-41072064D01*
X136611194Y-41167302D01*
X136658813Y-41214921D01*
X136754051Y-41262540D01*
X137039765Y-41262540D01*
X137135003Y-41214921D01*
X137182622Y-41167302D01*
%TO.C,R54*%
X134102120Y-41350322D02*
X133625930Y-41016989D01*
X134102120Y-40778894D02*
X133102120Y-40778894D01*
X133102120Y-41159846D01*
X133149740Y-41255084D01*
X133197359Y-41302703D01*
X133292597Y-41350322D01*
X133435454Y-41350322D01*
X133530692Y-41302703D01*
X133578311Y-41255084D01*
X133625930Y-41159846D01*
X133625930Y-40778894D01*
X133102120Y-42255084D02*
X133102120Y-41778894D01*
X133578311Y-41731275D01*
X133530692Y-41778894D01*
X133483073Y-41874132D01*
X133483073Y-42112227D01*
X133530692Y-42207465D01*
X133578311Y-42255084D01*
X133673549Y-42302703D01*
X133911644Y-42302703D01*
X134006882Y-42255084D01*
X134054501Y-42207465D01*
X134102120Y-42112227D01*
X134102120Y-41874132D01*
X134054501Y-41778894D01*
X134006882Y-41731275D01*
X133435454Y-43159846D02*
X134102120Y-43159846D01*
X133054501Y-42921751D02*
X133768787Y-42683656D01*
X133768787Y-43302703D01*
%TD*%
M02*
